<?xml version="1.0" encoding="UTF-8" standalone="no"?>
<!DOCTYPE svg PUBLIC "-//W3C//DTD SVG 1.1//EN"
 "http://www.w3.org/Graphics/SVG/1.1/DTD/svg11.dtd">
<!-- Generated by graphviz version 2.46.0 (20210118.1747)
 -->
<!-- Title: G Pages: 1 -->
<svg width="624pt" height="1420pt"
 viewBox="0.00 0.00 624.00 1420.00" xmlns="http://www.w3.org/2000/svg" xmlns:xlink="http://www.w3.org/1999/xlink">
<g id="graph0" class="graph" transform="scale(1 1) rotate(0) translate(4 1416)">
<title>G</title>
<polygon fill="white" stroke="transparent" points="-4,4 -4,-1416 620,-1416 620,4 -4,4"/>
<g id="clust1" class="cluster">
<title>cluster_Global</title>
<polygon fill="none" stroke="black" points="8,-8 8,-1404 608,-1404 608,-8 8,-8"/>
<text text-anchor="middle" x="308" y="-1391.2" font-family="Times,serif" font-size="11.00" fill="gray">Global</text>
</g>
<g id="clust2" class="cluster">
<title>cluster_\TournamentGenerator</title>
<polygon fill="none" stroke="black" points="16,-16 16,-1376 600,-1376 600,-16 16,-16"/>
<text text-anchor="middle" x="308" y="-1363.2" font-family="Times,serif" font-size="11.00" fill="gray">TournamentGenerator</text>
</g>
<g id="clust3" class="cluster">
<title>cluster_\TournamentGenerator\Helpers</title>
<polygon fill="none" stroke="black" points="248,-924 248,-1348 389,-1348 389,-924 248,-924"/>
<text text-anchor="middle" x="318.5" y="-1335.2" font-family="Times,serif" font-size="11.00" fill="gray">Helpers</text>
</g>
<g id="clust4" class="cluster">
<title>cluster_\TournamentGenerator\Helpers\Sorter</title>
<polygon fill="none" stroke="black" points="283.5,-1194 283.5,-1320 353.5,-1320 353.5,-1194 283.5,-1194"/>
<text text-anchor="middle" x="318.5" y="-1307.2" font-family="Times,serif" font-size="11.00" fill="gray">Sorter</text>
</g>
<g id="clust5" class="cluster">
<title>cluster_\TournamentGenerator\Interfaces</title>
<polygon fill="none" stroke="black" points="24,-654 24,-1050 192,-1050 192,-654 24,-654"/>
<text text-anchor="middle" x="108" y="-1037.2" font-family="Times,serif" font-size="11.00" fill="gray">Interfaces</text>
</g>
<g id="clust6" class="cluster">
<title>cluster_\TournamentGenerator\Preset</title>
<polygon fill="none" stroke="black" points="282,-636 282,-816 592,-816 592,-636 282,-636"/>
<text text-anchor="middle" x="437" y="-803.2" font-family="Times,serif" font-size="11.00" fill="gray">Preset</text>
</g>
<g id="clust7" class="cluster">
<title>cluster_\TournamentGenerator\Traits</title>
<polygon fill="none" stroke="black" points="451.5,-286 451.5,-628 585.5,-628 585.5,-286 451.5,-286"/>
<text text-anchor="middle" x="518.5" y="-615.2" font-family="Times,serif" font-size="11.00" fill="gray">Traits</text>
</g>
<!-- \\TournamentGenerator\\Helpers\\Sorter\\Games -->
<g id="node1" class="node">
<title>\\TournamentGenerator\\Helpers\\Sorter\\Games</title>
<polygon fill="none" stroke="black" points="345.5,-1292 291.5,-1292 291.5,-1256 345.5,-1256 345.5,-1292"/>
<text text-anchor="middle" x="318.5" y="-1271.2" font-family="Courier,monospace" font-size="11.00">Games</text>
</g>
<!-- \\TournamentGenerator\\Helpers\\Sorter\\Teams -->
<g id="node2" class="node">
<title>\\TournamentGenerator\\Helpers\\Sorter\\Teams</title>
<polygon fill="none" stroke="black" points="345.5,-1238 291.5,-1238 291.5,-1202 345.5,-1202 345.5,-1238"/>
<text text-anchor="middle" x="318.5" y="-1217.2" font-family="Courier,monospace" font-size="11.00">Teams</text>
</g>
<!-- \\TournamentGenerator\\Helpers\\Filter -->
<g id="node3" class="node">
<title>\\TournamentGenerator\\Helpers\\Filter</title>
<polygon fill="none" stroke="black" points="347,-1184 290,-1184 290,-1148 347,-1148 347,-1184"/>
<text text-anchor="middle" x="318.5" y="-1163.2" font-family="Courier,monospace" font-size="11.00">Filter</text>
</g>
<!-- \\TournamentGenerator\\Helpers\\FilterComparator -->
<g id="node4" class="node">
<title>\\TournamentGenerator\\Helpers\\FilterComparator</title>
<polygon fill="none" stroke="black" points="381,-1130 256,-1130 256,-1094 381,-1094 381,-1130"/>
<text text-anchor="middle" x="318.5" y="-1109.2" font-family="Courier,monospace" font-size="11.00">FilterComparator</text>
</g>
<!-- \\TournamentGenerator\\Helpers\\Functions -->
<g id="node5" class="node">
<title>\\TournamentGenerator\\Helpers\\Functions</title>
<polygon fill="none" stroke="black" points="357,-1076 280,-1076 280,-1040 357,-1040 357,-1076"/>
<text text-anchor="middle" x="318.5" y="-1055.2" font-family="Courier,monospace" font-size="11.00">Functions</text>
</g>
<!-- \\TournamentGenerator\\Helpers\\Generator -->
<g id="node6" class="node">
<title>\\TournamentGenerator\\Helpers\\Generator</title>
<polygon fill="none" stroke="black" points="357,-1022 280,-1022 280,-986 357,-986 357,-1022"/>
<text text-anchor="middle" x="318.5" y="-1001.2" font-family="Courier,monospace" font-size="11.00">Generator</text>
</g>
<!-- \\TournamentGenerator\\Interfaces\\WithGeneratorSetters -->
<g id="node10" class="node">
<title>\\TournamentGenerator\\Interfaces\\WithGeneratorSetters</title>
<polygon fill="none" stroke="black" points="184,-1022 32,-1022 32,-986 184,-986 184,-1022"/>
<text text-anchor="middle" x="108" y="-1001.2" font-family="Courier,monospace" font-size="11.00">WithGeneratorSetters</text>
</g>
<!-- \\TournamentGenerator\\Helpers\\Generator&#45;&gt;\\TournamentGenerator\\Interfaces\\WithGeneratorSetters -->
<g id="edge13" class="edge">
<title>\\TournamentGenerator\\Helpers\\Generator&#45;&gt;\\TournamentGenerator\\Interfaces\\WithGeneratorSetters</title>
<path fill="none" stroke="black" stroke-dasharray="1,5" d="M279.74,-1004C255.81,-1004 223.85,-1004 194.06,-1004"/>
<polygon fill="none" stroke="black" points="194.05,-1000.5 184.05,-1004 194.05,-1007.5 194.05,-1000.5"/>
</g>
<!-- \\TournamentGenerator\\Interfaces\\WithSkipSetters -->
<g id="node13" class="node">
<title>\\TournamentGenerator\\Interfaces\\WithSkipSetters</title>
<polygon fill="none" stroke="black" points="167,-860 49,-860 49,-824 167,-824 167,-860"/>
<text text-anchor="middle" x="108" y="-839.2" font-family="Courier,monospace" font-size="11.00">WithSkipSetters</text>
</g>
<!-- \\TournamentGenerator\\Helpers\\Generator&#45;&gt;\\TournamentGenerator\\Interfaces\\WithSkipSetters -->
<g id="edge14" class="edge">
<title>\\TournamentGenerator\\Helpers\\Generator&#45;&gt;\\TournamentGenerator\\Interfaces\\WithSkipSetters</title>
<path fill="none" stroke="black" stroke-dasharray="1,5" d="M279.75,-994.88C268.58,-990.8 256.96,-985.04 248,-977 207.76,-940.88 233.23,-903.98 192,-869 187.41,-865.11 182.25,-861.77 176.8,-858.92"/>
<polygon fill="none" stroke="black" points="177.95,-855.59 167.41,-854.55 175,-861.94 177.95,-855.59"/>
</g>
<!-- \\TournamentGenerator\\Helpers\\Simulator -->
<g id="node7" class="node">
<title>\\TournamentGenerator\\Helpers\\Simulator</title>
<polygon fill="none" stroke="black" points="357,-968 280,-968 280,-932 357,-932 357,-968"/>
<text text-anchor="middle" x="318.5" y="-947.2" font-family="Courier,monospace" font-size="11.00">Simulator</text>
</g>
<!-- \\TournamentGenerator\\Interfaces\\WithCategories -->
<g id="node8" class="node">
<title>\\TournamentGenerator\\Interfaces\\WithCategories</title>
<polygon fill="none" stroke="black" points="163.5,-968 52.5,-968 52.5,-932 163.5,-932 163.5,-968"/>
<text text-anchor="middle" x="108" y="-947.2" font-family="Courier,monospace" font-size="11.00">WithCategories</text>
</g>
<!-- \\TournamentGenerator\\Interfaces\\WithGames -->
<g id="node9" class="node">
<title>\\TournamentGenerator\\Interfaces\\WithGames</title>
<polygon fill="none" stroke="black" points="146.5,-752 69.5,-752 69.5,-716 146.5,-716 146.5,-752"/>
<text text-anchor="middle" x="108" y="-731.2" font-family="Courier,monospace" font-size="11.00">WithGames</text>
</g>
<!-- \\TournamentGenerator\\Interfaces\\WithGroups -->
<g id="node11" class="node">
<title>\\TournamentGenerator\\Interfaces\\WithGroups</title>
<polygon fill="none" stroke="black" points="150,-806 66,-806 66,-770 150,-770 150,-806"/>
<text text-anchor="middle" x="108" y="-785.2" font-family="Courier,monospace" font-size="11.00">WithGroups</text>
</g>
<!-- \\TournamentGenerator\\Interfaces\\WithRounds -->
<g id="node12" class="node">
<title>\\TournamentGenerator\\Interfaces\\WithRounds</title>
<polygon fill="none" stroke="black" points="150,-914 66,-914 66,-878 150,-878 150,-914"/>
<text text-anchor="middle" x="108" y="-893.2" font-family="Courier,monospace" font-size="11.00">WithRounds</text>
</g>
<!-- \\TournamentGenerator\\Interfaces\\WithTeams -->
<g id="node14" class="node">
<title>\\TournamentGenerator\\Interfaces\\WithTeams</title>
<polygon fill="none" stroke="black" points="146.5,-698 69.5,-698 69.5,-662 146.5,-662 146.5,-698"/>
<text text-anchor="middle" x="108" y="-677.2" font-family="Courier,monospace" font-size="11.00">WithTeams</text>
</g>
<!-- \\TournamentGenerator\\Preset\\DoubleElimination -->
<g id="node15" class="node">
<title>\\TournamentGenerator\\Preset\\DoubleElimination</title>
<polygon fill="none" stroke="black" points="584,-680 453,-680 453,-644 584,-644 584,-680"/>
<text text-anchor="middle" x="518.5" y="-659.2" font-family="Courier,monospace" font-size="11.00">DoubleElimination</text>
</g>
<!-- \\TournamentGenerator\\Preset\\Preset -->
<g id="node18" class="node">
<title>\\TournamentGenerator\\Preset\\Preset</title>
<polygon fill="none" stroke="black" points="347,-734 290,-734 290,-698 347,-698 347,-734"/>
<text text-anchor="middle" x="318.5" y="-713.2" font-family="Courier,monospace" font-size="11.00">Preset</text>
</g>
<!-- \\TournamentGenerator\\Preset\\DoubleElimination&#45;&gt;\\TournamentGenerator\\Preset\\Preset -->
<g id="edge16" class="edge">
<title>\\TournamentGenerator\\Preset\\DoubleElimination&#45;&gt;\\TournamentGenerator\\Preset\\Preset</title>
<path fill="none" stroke="black" stroke-dasharray="1,5" d="M452.94,-679.61C421.22,-688.26 384.11,-698.38 357.09,-705.75"/>
<polygon fill="none" stroke="black" points="355.98,-702.42 347.26,-708.43 357.83,-709.18 355.98,-702.42"/>
</g>
<!-- \\TournamentGenerator\\Tournament -->
<g id="node35" class="node">
<title>\\TournamentGenerator\\Tournament</title>
<polygon fill="none" stroke="black" points="360.5,-914 276.5,-914 276.5,-878 360.5,-878 360.5,-914"/>
<text text-anchor="middle" x="318.5" y="-893.2" font-family="Courier,monospace" font-size="11.00">Tournament</text>
</g>
<!-- \\TournamentGenerator\\Preset\\DoubleElimination&#45;&gt;\\TournamentGenerator\\Tournament -->
<g id="edge15" class="edge">
<title>\\TournamentGenerator\\Preset\\DoubleElimination&#45;&gt;\\TournamentGenerator\\Tournament</title>
<path fill="none" stroke="black" d="M462.15,-680.17C458.27,-682.75 454.65,-685.67 451.5,-689 393.26,-750.48 447.78,-808.04 389,-869 383.57,-874.63 376.82,-879.11 369.69,-882.67"/>
<polygon fill="none" stroke="black" points="368.27,-879.47 360.52,-886.7 371.08,-885.88 368.27,-879.47"/>
</g>
<!-- \\TournamentGenerator\\Preset\\R2G -->
<g id="node16" class="node">
<title>\\TournamentGenerator\\Preset\\R2G</title>
<polygon fill="none" stroke="black" points="545.5,-788 491.5,-788 491.5,-752 545.5,-752 545.5,-788"/>
<text text-anchor="middle" x="518.5" y="-767.2" font-family="Courier,monospace" font-size="11.00">R2G</text>
</g>
<!-- \\TournamentGenerator\\Preset\\R2G&#45;&gt;\\TournamentGenerator\\Preset\\Preset -->
<g id="edge18" class="edge">
<title>\\TournamentGenerator\\Preset\\R2G&#45;&gt;\\TournamentGenerator\\Preset\\Preset</title>
<path fill="none" stroke="black" stroke-dasharray="1,5" d="M491.21,-762.83C456.76,-753.43 396.13,-736.9 356.9,-726.2"/>
<polygon fill="none" stroke="black" points="357.75,-722.8 347.18,-723.55 355.9,-729.56 357.75,-722.8"/>
</g>
<!-- \\TournamentGenerator\\Preset\\R2G&#45;&gt;\\TournamentGenerator\\Tournament -->
<g id="edge17" class="edge">
<title>\\TournamentGenerator\\Preset\\R2G&#45;&gt;\\TournamentGenerator\\Tournament</title>
<path fill="none" stroke="black" d="M497.86,-788.05C473.68,-809.54 430.7,-845.48 389,-869 383.09,-872.33 376.69,-875.43 370.24,-878.25"/>
<polygon fill="none" stroke="black" points="368.7,-875.1 360.82,-882.19 371.4,-881.57 368.7,-875.1"/>
</g>
<!-- \\TournamentGenerator\\Preset\\SingleElimination -->
<g id="node17" class="node">
<title>\\TournamentGenerator\\Preset\\SingleElimination</title>
<polygon fill="none" stroke="black" points="584,-734 453,-734 453,-698 584,-698 584,-734"/>
<text text-anchor="middle" x="518.5" y="-713.2" font-family="Courier,monospace" font-size="11.00">SingleElimination</text>
</g>
<!-- \\TournamentGenerator\\Preset\\SingleElimination&#45;&gt;\\TournamentGenerator\\Preset\\Preset -->
<g id="edge20" class="edge">
<title>\\TournamentGenerator\\Preset\\SingleElimination&#45;&gt;\\TournamentGenerator\\Preset\\Preset</title>
<path fill="none" stroke="black" stroke-dasharray="1,5" d="M452.94,-716C421.36,-716 384.44,-716 357.44,-716"/>
<polygon fill="none" stroke="black" points="357.26,-712.5 347.26,-716 357.26,-719.5 357.26,-712.5"/>
</g>
<!-- \\TournamentGenerator\\Preset\\SingleElimination&#45;&gt;\\TournamentGenerator\\Tournament -->
<g id="edge19" class="edge">
<title>\\TournamentGenerator\\Preset\\SingleElimination&#45;&gt;\\TournamentGenerator\\Tournament</title>
<path fill="none" stroke="black" d="M463.57,-734.02C459.23,-736.65 455.13,-739.63 451.5,-743 405.73,-785.58 435.14,-826.83 389,-869 383.48,-874.04 376.92,-878.18 370.06,-881.58"/>
<polygon fill="none" stroke="black" points="368.33,-878.51 360.59,-885.75 371.15,-884.92 368.33,-878.51"/>
</g>
<!-- \\TournamentGenerator\\Traits\\WithCategories -->
<g id="node19" class="node">
<title>\\TournamentGenerator\\Traits\\WithCategories</title>
<polygon fill="none" stroke="black" points="574,-600 463,-600 463,-564 574,-564 574,-600"/>
<text text-anchor="middle" x="518.5" y="-579.2" font-family="Courier,monospace" font-size="11.00">WithCategories</text>
</g>
<!-- \\TournamentGenerator\\Traits\\WithGames -->
<g id="node20" class="node">
<title>\\TournamentGenerator\\Traits\\WithGames</title>
<polygon fill="none" stroke="black" points="557,-546 480,-546 480,-510 557,-510 557,-546"/>
<text text-anchor="middle" x="518.5" y="-525.2" font-family="Courier,monospace" font-size="11.00">WithGames</text>
</g>
<!-- \\TournamentGenerator\\Traits\\WithGroups -->
<g id="node21" class="node">
<title>\\TournamentGenerator\\Traits\\WithGroups</title>
<polygon fill="none" stroke="black" points="560.5,-492 476.5,-492 476.5,-456 560.5,-456 560.5,-492"/>
<text text-anchor="middle" x="518.5" y="-471.2" font-family="Courier,monospace" font-size="11.00">WithGroups</text>
</g>
<!-- \\TournamentGenerator\\Traits\\WithRounds -->
<g id="node22" class="node">
<title>\\TournamentGenerator\\Traits\\WithRounds</title>
<polygon fill="none" stroke="black" points="560.5,-438 476.5,-438 476.5,-402 560.5,-402 560.5,-438"/>
<text text-anchor="middle" x="518.5" y="-417.2" font-family="Courier,monospace" font-size="11.00">WithRounds</text>
</g>
<!-- \\TournamentGenerator\\Traits\\WithSkipSetters -->
<g id="node23" class="node">
<title>\\TournamentGenerator\\Traits\\WithSkipSetters</title>
<polygon fill="none" stroke="black" points="577.5,-384 459.5,-384 459.5,-348 577.5,-348 577.5,-384"/>
<text text-anchor="middle" x="518.5" y="-363.2" font-family="Courier,monospace" font-size="11.00">WithSkipSetters</text>
</g>
<!-- \\TournamentGenerator\\Traits\\WithTeams -->
<g id="node24" class="node">
<title>\\TournamentGenerator\\Traits\\WithTeams</title>
<polygon fill="none" stroke="black" points="557,-330 480,-330 480,-294 557,-294 557,-330"/>
<text text-anchor="middle" x="518.5" y="-309.2" font-family="Courier,monospace" font-size="11.00">WithTeams</text>
</g>
<!-- \\TournamentGenerator\\Base -->
<g id="node25" class="node">
<title>\\TournamentGenerator\\Base</title>
<polygon fill="none" stroke="black" points="150,-628 66,-628 66,-592 150,-592 150,-628"/>
<text text-anchor="start" x="74" y="-613.2" font-family="Courier,monospace" font-size="11.00">«abstract»</text>
<text text-anchor="start" x="94" y="-601.2" font-family="Courier,monospace" font-size="11.00">Base</text>
</g>
<!-- \\TournamentGenerator\\BlankTeam -->
<g id="node26" class="node">
<title>\\TournamentGenerator\\BlankTeam</title>
<polygon fill="none" stroke="black" points="557,-276 480,-276 480,-240 557,-240 557,-276"/>
<text text-anchor="middle" x="518.5" y="-255.2" font-family="Courier,monospace" font-size="11.00">BlankTeam</text>
</g>
<!-- \\TournamentGenerator\\Team -->
<g id="node33" class="node">
<title>\\TournamentGenerator\\Team</title>
<polygon fill="none" stroke="black" points="345.5,-398 291.5,-398 291.5,-362 345.5,-362 345.5,-398"/>
<text text-anchor="middle" x="318.5" y="-377.2" font-family="Courier,monospace" font-size="11.00">Team</text>
</g>
<!-- \\TournamentGenerator\\BlankTeam&#45;&gt;\\TournamentGenerator\\Team -->
<g id="edge1" class="edge">
<title>\\TournamentGenerator\\BlankTeam&#45;&gt;\\TournamentGenerator\\Team</title>
<path fill="none" stroke="black" d="M479.68,-269.62C470.24,-273.1 460.3,-277.26 451.5,-282 413.17,-302.63 373.67,-333.45 347.99,-355.01"/>
<polygon fill="none" stroke="black" points="345.52,-352.52 340.16,-361.66 350.05,-357.85 345.52,-352.52"/>
</g>
<!-- \\TournamentGenerator\\Category -->
<g id="node27" class="node">
<title>\\TournamentGenerator\\Category</title>
<polygon fill="none" stroke="black" points="354,-860 283,-860 283,-824 354,-824 354,-860"/>
<text text-anchor="middle" x="318.5" y="-839.2" font-family="Courier,monospace" font-size="11.00">Category</text>
</g>
<!-- \\TournamentGenerator\\Category&#45;&gt;\\TournamentGenerator\\Interfaces\\WithGames -->
<g id="edge7" class="edge">
<title>\\TournamentGenerator\\Category&#45;&gt;\\TournamentGenerator\\Interfaces\\WithGames</title>
<path fill="none" stroke="black" stroke-dasharray="1,5" d="M282.77,-834.72C271.16,-831.34 258.51,-826.58 248,-820 217.35,-800.83 222.57,-780.3 192,-761 181.18,-754.17 168.47,-748.91 156.29,-744.93"/>
<polygon fill="none" stroke="black" points="157.27,-741.57 146.69,-742 155.23,-748.26 157.27,-741.57"/>
</g>
<!-- \\TournamentGenerator\\Category&#45;&gt;\\TournamentGenerator\\Interfaces\\WithGroups -->
<g id="edge6" class="edge">
<title>\\TournamentGenerator\\Category&#45;&gt;\\TournamentGenerator\\Interfaces\\WithGroups</title>
<path fill="none" stroke="black" stroke-dasharray="1,5" d="M282.6,-832.96C249.08,-824.28 198.05,-811.06 159.98,-801.2"/>
<polygon fill="none" stroke="black" points="160.66,-797.77 150.11,-798.65 158.91,-804.54 160.66,-797.77"/>
</g>
<!-- \\TournamentGenerator\\Category&#45;&gt;\\TournamentGenerator\\Interfaces\\WithRounds -->
<g id="edge4" class="edge">
<title>\\TournamentGenerator\\Category&#45;&gt;\\TournamentGenerator\\Interfaces\\WithRounds</title>
<path fill="none" stroke="black" stroke-dasharray="1,5" d="M282.6,-851.04C249.08,-859.72 198.05,-872.94 159.98,-882.8"/>
<polygon fill="none" stroke="black" points="158.91,-879.46 150.11,-885.35 160.66,-886.23 158.91,-879.46"/>
</g>
<!-- \\TournamentGenerator\\Category&#45;&gt;\\TournamentGenerator\\Interfaces\\WithSkipSetters -->
<g id="edge3" class="edge">
<title>\\TournamentGenerator\\Category&#45;&gt;\\TournamentGenerator\\Interfaces\\WithSkipSetters</title>
<path fill="none" stroke="black" stroke-dasharray="1,5" d="M282.6,-842C254.01,-842 212.68,-842 177.51,-842"/>
<polygon fill="none" stroke="black" points="177.3,-838.5 167.3,-842 177.3,-845.5 177.3,-838.5"/>
</g>
<!-- \\TournamentGenerator\\Category&#45;&gt;\\TournamentGenerator\\Interfaces\\WithTeams -->
<g id="edge5" class="edge">
<title>\\TournamentGenerator\\Category&#45;&gt;\\TournamentGenerator\\Interfaces\\WithTeams</title>
<path fill="none" stroke="black" stroke-dasharray="1,5" d="M282.95,-836.82C270.83,-833.6 257.8,-828.4 248,-820 205.44,-783.52 234.41,-743.65 192,-707 182.05,-698.4 169.3,-692.53 156.8,-688.52"/>
<polygon fill="none" stroke="black" points="157.47,-685.07 146.89,-685.7 155.55,-691.8 157.47,-685.07"/>
</g>
<!-- \\TournamentGenerator\\Category&#45;&gt;\\TournamentGenerator\\Base -->
<g id="edge2" class="edge">
<title>\\TournamentGenerator\\Category&#45;&gt;\\TournamentGenerator\\Base</title>
<path fill="none" stroke="black" d="M282.99,-837.73C270.59,-834.62 257.36,-829.25 248,-820 191.42,-764.08 244.45,-709.81 192,-650 183.18,-639.94 171.25,-632.18 159.2,-626.29"/>
<polygon fill="none" stroke="black" points="160.56,-623.07 150.01,-622.15 157.69,-629.45 160.56,-623.07"/>
</g>
<!-- \\TournamentGenerator\\Constants -->
<g id="node28" class="node">
<title>\\TournamentGenerator\\Constants</title>
<polygon fill="none" stroke="black" points="557,-222 480,-222 480,-186 557,-186 557,-222"/>
<text text-anchor="middle" x="518.5" y="-201.2" font-family="Courier,monospace" font-size="11.00">Constants</text>
</g>
<!-- \\TournamentGenerator\\Game -->
<g id="node29" class="node">
<title>\\TournamentGenerator\\Game</title>
<polygon fill="none" stroke="black" points="545.5,-168 491.5,-168 491.5,-132 545.5,-132 545.5,-168"/>
<text text-anchor="middle" x="518.5" y="-147.2" font-family="Courier,monospace" font-size="11.00">Game</text>
</g>
<!-- \\TournamentGenerator\\Group -->
<g id="node30" class="node">
<title>\\TournamentGenerator\\Group</title>
<polygon fill="none" stroke="black" points="345.5,-628 291.5,-628 291.5,-592 345.5,-592 345.5,-628"/>
<text text-anchor="middle" x="318.5" y="-607.2" font-family="Courier,monospace" font-size="11.00">Group</text>
</g>
<!-- \\TournamentGenerator\\Group&#45;&gt;\\TournamentGenerator\\Interfaces\\WithGames -->
<g id="edge12" class="edge">
<title>\\TournamentGenerator\\Group&#45;&gt;\\TournamentGenerator\\Interfaces\\WithGames</title>
<path fill="none" stroke="black" stroke-dasharray="1,5" d="M291.32,-614.26C277.5,-617.46 260.79,-622.91 248,-632 214.09,-656.1 225.81,-682.76 192,-707 181.51,-714.52 168.8,-720.03 156.52,-724.03"/>
<polygon fill="none" stroke="black" points="155.39,-720.71 146.81,-726.92 157.39,-727.42 155.39,-720.71"/>
</g>
<!-- \\TournamentGenerator\\Group&#45;&gt;\\TournamentGenerator\\Interfaces\\WithGeneratorSetters -->
<g id="edge9" class="edge">
<title>\\TournamentGenerator\\Group&#45;&gt;\\TournamentGenerator\\Interfaces\\WithGeneratorSetters</title>
<path fill="none" stroke="black" stroke-dasharray="1,5" d="M291.38,-611.69C276.51,-614.07 258.76,-619.55 248,-632 146.44,-749.54 293.09,-859.05 192,-977 191.37,-977.73 190.73,-978.44 190.06,-979.13"/>
<polygon fill="none" stroke="black" points="187.58,-976.65 182.3,-985.83 192.16,-981.95 187.58,-976.65"/>
</g>
<!-- \\TournamentGenerator\\Group&#45;&gt;\\TournamentGenerator\\Interfaces\\WithSkipSetters -->
<g id="edge10" class="edge">
<title>\\TournamentGenerator\\Group&#45;&gt;\\TournamentGenerator\\Interfaces\\WithSkipSetters</title>
<path fill="none" stroke="black" stroke-dasharray="1,5" d="M291.3,-612.37C276.77,-614.99 259.4,-620.49 248,-632 188.15,-692.43 251.61,-754.33 192,-815 187.47,-819.61 182.14,-823.43 176.42,-826.61"/>
<polygon fill="none" stroke="black" points="174.63,-823.58 167.14,-831.07 177.67,-829.89 174.63,-823.58"/>
</g>
<!-- \\TournamentGenerator\\Group&#45;&gt;\\TournamentGenerator\\Interfaces\\WithTeams -->
<g id="edge11" class="edge">
<title>\\TournamentGenerator\\Group&#45;&gt;\\TournamentGenerator\\Interfaces\\WithTeams</title>
<path fill="none" stroke="black" stroke-dasharray="1,5" d="M291.48,-617.37C278.31,-621.32 262.16,-626.5 248,-632 222.42,-641.94 217.81,-648.67 192,-658 180.61,-662.12 168.09,-665.84 156.3,-669"/>
<polygon fill="none" stroke="black" points="155.41,-665.61 146.61,-671.52 157.17,-672.39 155.41,-665.61"/>
</g>
<!-- \\TournamentGenerator\\Group&#45;&gt;\\TournamentGenerator\\Base -->
<g id="edge8" class="edge">
<title>\\TournamentGenerator\\Group&#45;&gt;\\TournamentGenerator\\Base</title>
<path fill="none" stroke="black" d="M291.09,-610C258.36,-610 201.85,-610 160.44,-610"/>
<polygon fill="none" stroke="black" points="160.26,-606.5 150.26,-610 160.26,-613.5 160.26,-606.5"/>
</g>
<!-- \\TournamentGenerator\\Progression -->
<g id="node31" class="node">
<title>\\TournamentGenerator\\Progression</title>
<polygon fill="none" stroke="black" points="564,-114 473,-114 473,-78 564,-78 564,-114"/>
<text text-anchor="middle" x="518.5" y="-93.2" font-family="Courier,monospace" font-size="11.00">Progression</text>
</g>
<!-- \\TournamentGenerator\\Round -->
<g id="node32" class="node">
<title>\\TournamentGenerator\\Round</title>
<polygon fill="none" stroke="black" points="345.5,-574 291.5,-574 291.5,-538 345.5,-538 345.5,-574"/>
<text text-anchor="middle" x="318.5" y="-553.2" font-family="Courier,monospace" font-size="11.00">Round</text>
</g>
<!-- \\TournamentGenerator\\Round&#45;&gt;\\TournamentGenerator\\Interfaces\\WithGames -->
<g id="edge25" class="edge">
<title>\\TournamentGenerator\\Round&#45;&gt;\\TournamentGenerator\\Interfaces\\WithGames</title>
<path fill="none" stroke="black" stroke-dasharray="1,5" d="M291.43,-561.04C277.13,-564.96 259.93,-571.69 248,-583 204.11,-624.6 237.04,-666.65 192,-707 182.12,-715.86 169.28,-721.81 156.67,-725.82"/>
<polygon fill="none" stroke="black" points="155.34,-722.55 146.66,-728.63 157.24,-729.29 155.34,-722.55"/>
</g>
<!-- \\TournamentGenerator\\Round&#45;&gt;\\TournamentGenerator\\Interfaces\\WithGroups -->
<g id="edge24" class="edge">
<title>\\TournamentGenerator\\Round&#45;&gt;\\TournamentGenerator\\Interfaces\\WithGroups</title>
<path fill="none" stroke="black" stroke-dasharray="1,5" d="M291.24,-560.43C276.7,-564.16 259.32,-570.91 248,-583 191.32,-643.54 250.36,-702.07 192,-761 183.34,-769.75 171.81,-775.66 160.11,-779.66"/>
<polygon fill="none" stroke="black" points="158.89,-776.38 150.31,-782.59 160.89,-783.08 158.89,-776.38"/>
</g>
<!-- \\TournamentGenerator\\Round&#45;&gt;\\TournamentGenerator\\Interfaces\\WithSkipSetters -->
<g id="edge22" class="edge">
<title>\\TournamentGenerator\\Round&#45;&gt;\\TournamentGenerator\\Interfaces\\WithSkipSetters</title>
<path fill="none" stroke="black" stroke-dasharray="1,5" d="M291.27,-560.06C276.55,-563.67 258.99,-570.43 248,-583 178.17,-662.85 264.04,-737.14 192,-815 187.54,-819.82 182.22,-823.78 176.45,-827.03"/>
<polygon fill="none" stroke="black" points="174.53,-824.07 167.07,-831.59 177.59,-830.37 174.53,-824.07"/>
</g>
<!-- \\TournamentGenerator\\Round&#45;&gt;\\TournamentGenerator\\Interfaces\\WithTeams -->
<g id="edge23" class="edge">
<title>\\TournamentGenerator\\Round&#45;&gt;\\TournamentGenerator\\Interfaces\\WithTeams</title>
<path fill="none" stroke="black" stroke-dasharray="1,5" d="M291.31,-562.38C277.48,-566.65 260.78,-573.29 248,-583 214.88,-608.18 226.47,-634.71 192,-658 181.58,-665.04 169.01,-669.83 156.84,-673.09"/>
<polygon fill="none" stroke="black" points="155.69,-669.77 146.77,-675.48 157.31,-676.58 155.69,-669.77"/>
</g>
<!-- \\TournamentGenerator\\Round&#45;&gt;\\TournamentGenerator\\Base -->
<g id="edge21" class="edge">
<title>\\TournamentGenerator\\Round&#45;&gt;\\TournamentGenerator\\Base</title>
<path fill="none" stroke="black" d="M291.09,-562.84C258.29,-571.33 201.61,-586.01 160.18,-596.75"/>
<polygon fill="none" stroke="black" points="159.07,-593.42 150.26,-599.31 160.82,-600.19 159.07,-593.42"/>
</g>
<!-- \\TournamentGenerator\\Team&#45;&gt;\\TournamentGenerator\\Base -->
<g id="edge26" class="edge">
<title>\\TournamentGenerator\\Team&#45;&gt;\\TournamentGenerator\\Base</title>
<path fill="none" stroke="black" d="M301.14,-398.05C264.39,-438.59 175.16,-537.01 132.49,-584.08"/>
<polygon fill="none" stroke="black" points="129.7,-581.96 125.57,-591.72 134.88,-586.66 129.7,-581.96"/>
</g>
<!-- \\TournamentGenerator\\TeamFilter -->
<g id="node34" class="node">
<title>\\TournamentGenerator\\TeamFilter</title>
<polygon fill="none" stroke="black" points="560.5,-60 476.5,-60 476.5,-24 560.5,-24 560.5,-60"/>
<text text-anchor="middle" x="518.5" y="-39.2" font-family="Courier,monospace" font-size="11.00">TeamFilter</text>
</g>
<!-- \\TournamentGenerator\\Tournament&#45;&gt;\\TournamentGenerator\\Interfaces\\WithCategories -->
<g id="edge31" class="edge">
<title>\\TournamentGenerator\\Tournament&#45;&gt;\\TournamentGenerator\\Interfaces\\WithCategories</title>
<path fill="none" stroke="black" stroke-dasharray="1,5" d="M276.31,-906.67C246.93,-914.28 206.84,-924.66 173.28,-933.35"/>
<polygon fill="none" stroke="black" points="172.35,-929.98 163.54,-935.87 174.1,-936.75 172.35,-929.98"/>
</g>
<!-- \\TournamentGenerator\\Tournament&#45;&gt;\\TournamentGenerator\\Interfaces\\WithGames -->
<g id="edge33" class="edge">
<title>\\TournamentGenerator\\Tournament&#45;&gt;\\TournamentGenerator\\Interfaces\\WithGames</title>
<path fill="none" stroke="black" stroke-dasharray="1,5" d="M276.5,-885.65C266.36,-881.67 256.09,-876.26 248,-869 207.76,-832.88 233.23,-795.98 192,-761 181.97,-752.49 169.2,-746.65 156.7,-742.64"/>
<polygon fill="none" stroke="black" points="157.37,-739.19 146.79,-739.81 155.44,-745.92 157.37,-739.19"/>
</g>
<!-- \\TournamentGenerator\\Tournament&#45;&gt;\\TournamentGenerator\\Interfaces\\WithGroups -->
<g id="edge32" class="edge">
<title>\\TournamentGenerator\\Tournament&#45;&gt;\\TournamentGenerator\\Interfaces\\WithGroups</title>
<path fill="none" stroke="black" stroke-dasharray="1,5" d="M276.49,-883.17C266.78,-879.31 256.72,-874.58 248,-869 218.87,-850.37 221.64,-832.8 192,-815 182.15,-809.09 170.86,-804.31 159.84,-800.51"/>
<polygon fill="none" stroke="black" points="160.87,-797.16 150.27,-797.42 158.72,-803.82 160.87,-797.16"/>
</g>
<!-- \\TournamentGenerator\\Tournament&#45;&gt;\\TournamentGenerator\\Interfaces\\WithRounds -->
<g id="edge30" class="edge">
<title>\\TournamentGenerator\\Tournament&#45;&gt;\\TournamentGenerator\\Interfaces\\WithRounds</title>
<path fill="none" stroke="black" stroke-dasharray="1,5" d="M276.31,-896C243.04,-896 196.05,-896 160.33,-896"/>
<polygon fill="none" stroke="black" points="160.11,-892.5 150.11,-896 160.11,-899.5 160.11,-892.5"/>
</g>
<!-- \\TournamentGenerator\\Tournament&#45;&gt;\\TournamentGenerator\\Interfaces\\WithSkipSetters -->
<g id="edge28" class="edge">
<title>\\TournamentGenerator\\Tournament&#45;&gt;\\TournamentGenerator\\Interfaces\\WithSkipSetters</title>
<path fill="none" stroke="black" stroke-dasharray="1,5" d="M276.31,-885.33C248.02,-878.01 209.81,-868.11 177.05,-859.63"/>
<polygon fill="none" stroke="black" points="177.63,-856.16 167.08,-857.04 175.88,-862.94 177.63,-856.16"/>
</g>
<!-- \\TournamentGenerator\\Tournament&#45;&gt;\\TournamentGenerator\\Interfaces\\WithTeams -->
<g id="edge29" class="edge">
<title>\\TournamentGenerator\\Tournament&#45;&gt;\\TournamentGenerator\\Interfaces\\WithTeams</title>
<path fill="none" stroke="black" stroke-dasharray="1,5" d="M276.48,-886.7C266.1,-882.7 255.72,-877.02 248,-869 195.16,-814.13 246.36,-760.37 192,-707 182.35,-697.53 169.34,-691.37 156.49,-687.38"/>
<polygon fill="none" stroke="black" points="157.31,-683.98 146.75,-684.73 155.48,-690.74 157.31,-683.98"/>
</g>
<!-- \\TournamentGenerator\\Tournament&#45;&gt;\\TournamentGenerator\\Base -->
<g id="edge27" class="edge">
<title>\\TournamentGenerator\\Tournament&#45;&gt;\\TournamentGenerator\\Base</title>
<path fill="none" stroke="black" d="M276.39,-887.25C265.89,-883.24 255.47,-877.43 248,-869 181.36,-793.82 255.64,-727.74 192,-650 183.44,-639.55 171.49,-631.63 159.33,-625.73"/>
<polygon fill="none" stroke="black" points="160.59,-622.46 150.03,-621.59 157.75,-628.86 160.59,-622.46"/>
</g>
</g>
</svg>
