<?xml version="1.0" encoding="UTF-8" standalone="no"?>
<!DOCTYPE svg PUBLIC "-//W3C//DTD SVG 1.1//EN"
 "http://www.w3.org/Graphics/SVG/1.1/DTD/svg11.dtd">
<!-- Generated by graphviz version 2.46.0 (20210118.1747)
 -->
<!-- Title: G Pages: 1 -->
<svg width="779pt" height="1652pt"
 viewBox="0.00 0.00 779.00 1652.00" xmlns="http://www.w3.org/2000/svg" xmlns:xlink="http://www.w3.org/1999/xlink">
<g id="graph0" class="graph" transform="scale(1 1) rotate(0) translate(4 1648)">
<title>G</title>
<polygon fill="white" stroke="transparent" points="-4,4 -4,-1648 775,-1648 775,4 -4,4"/>
<g id="clust1" class="cluster">
<title>cluster_Global</title>
<polygon fill="none" stroke="black" points="8,-8 8,-1636 763,-1636 763,-8 8,-8"/>
<text text-anchor="middle" x="385.5" y="-1623.2" font-family="Times,serif" font-size="11.00" fill="gray">Global</text>
</g>
<g id="clust2" class="cluster">
<title>cluster_\TournamentGenerator</title>
<polygon fill="none" stroke="black" points="16,-16 16,-1510 755,-1510 755,-16 16,-16"/>
<text text-anchor="middle" x="385.5" y="-1497.2" font-family="Times,serif" font-size="11.00" fill="gray">TournamentGenerator</text>
</g>
<g id="clust3" class="cluster">
<title>cluster_\TournamentGenerator\Containers</title>
<polygon fill="none" stroke="black" points="406.5,-1248 406.5,-1482 747,-1482 747,-1248 406.5,-1248"/>
<text text-anchor="middle" x="576.75" y="-1469.2" font-family="Times,serif" font-size="11.00" fill="gray">Containers</text>
</g>
<g id="clust4" class="cluster">
<title>cluster_\TournamentGenerator\Helpers</title>
<polygon fill="none" stroke="black" points="198,-816 198,-1240 537,-1240 537,-816 198,-816"/>
<text text-anchor="middle" x="367.5" y="-1227.2" font-family="Times,serif" font-size="11.00" fill="gray">Helpers</text>
</g>
<g id="clust5" class="cluster">
<title>cluster_\TournamentGenerator\Helpers\Sorter</title>
<polygon fill="none" stroke="black" points="206,-1086 206,-1212 516.5,-1212 516.5,-1086 206,-1086"/>
<text text-anchor="middle" x="361.25" y="-1199.2" font-family="Times,serif" font-size="11.00" fill="gray">Sorter</text>
</g>
<g id="clust6" class="cluster">
<title>cluster_\TournamentGenerator\Interfaces</title>
<polygon fill="none" stroke="black" points="172,-367 172,-763 340,-763 340,-367 172,-367"/>
<text text-anchor="middle" x="256" y="-750.2" font-family="Times,serif" font-size="11.00" fill="gray">Interfaces</text>
</g>
<g id="clust7" class="cluster">
<title>cluster_\TournamentGenerator\Preset</title>
<polygon fill="none" stroke="black" points="430,-582 430,-762 743.5,-762 743.5,-582 430,-582"/>
<text text-anchor="middle" x="586.75" y="-749.2" font-family="Times,serif" font-size="11.00" fill="gray">Preset</text>
</g>
<g id="clust8" class="cluster">
<title>cluster_\TournamentGenerator\Traits</title>
<polygon fill="none" stroke="black" points="603,-232 603,-574 737,-574 737,-232 603,-232"/>
<text text-anchor="middle" x="670" y="-561.2" font-family="Times,serif" font-size="11.00" fill="gray">Traits</text>
</g>
<!-- \\TournamentGenerator\\Containers\\BaseContainer -->
<g id="node1" class="node">
<title>\\TournamentGenerator\\Containers\\BaseContainer</title>
<polygon fill="none" stroke="black" points="518.5,-1400 414.5,-1400 414.5,-1364 518.5,-1364 518.5,-1400"/>
<text text-anchor="middle" x="466.5" y="-1379.2" font-family="Courier,monospace" font-size="11.00">BaseContainer</text>
</g>
<!-- Countable -->
<g id="node43" class="node">
<title>Countable</title>
<ellipse fill="none" stroke="black" cx="256" cy="-1536" rx="46.59" ry="18"/>
<text text-anchor="middle" x="256" y="-1532.3" font-family="Times,serif" font-size="14.00" fill="gray">Countable</text>
</g>
<!-- \\TournamentGenerator\\Containers\\BaseContainer&#45;&gt;Countable -->
<g id="edge34" class="edge">
<title>\\TournamentGenerator\\Containers\\BaseContainer&#45;&gt;Countable</title>
<path fill="none" stroke="black" stroke-dasharray="1,5" d="M440.76,-1400.27C402.21,-1428.74 327.95,-1483.6 286.61,-1514.13"/>
<polygon fill="none" stroke="black" points="284.52,-1511.32 278.56,-1520.08 288.68,-1516.95 284.52,-1511.32"/>
</g>
<!-- Iterator -->
<g id="node44" class="node">
<title>Iterator</title>
<ellipse fill="none" stroke="black" cx="256" cy="-1590" rx="36.29" ry="18"/>
<text text-anchor="middle" x="256" y="-1586.3" font-family="Times,serif" font-size="14.00" fill="gray">Iterator</text>
</g>
<!-- \\TournamentGenerator\\Containers\\BaseContainer&#45;&gt;Iterator -->
<g id="edge35" class="edge">
<title>\\TournamentGenerator\\Containers\\BaseContainer&#45;&gt;Iterator</title>
<path fill="none" stroke="black" stroke-dasharray="1,5" d="M457.84,-1400.07C441.54,-1436.35 399.98,-1518.38 340,-1563 328.46,-1571.59 314.06,-1577.52 300.51,-1581.58"/>
<polygon fill="none" stroke="black" points="299.57,-1578.21 290.85,-1584.22 301.42,-1584.96 299.57,-1578.21"/>
</g>
<!-- \\TournamentGenerator\\Containers\\ContainerQuery -->
<g id="node2" class="node">
<title>\\TournamentGenerator\\Containers\\ContainerQuery</title>
<polygon fill="none" stroke="black" points="725.5,-1454 614.5,-1454 614.5,-1418 725.5,-1418 725.5,-1454"/>
<text text-anchor="middle" x="670" y="-1433.2" font-family="Courier,monospace" font-size="11.00">ContainerQuery</text>
</g>
<!-- \\TournamentGenerator\\Containers\\GameContainer -->
<g id="node3" class="node">
<title>\\TournamentGenerator\\Containers\\GameContainer</title>
<polygon fill="none" stroke="black" points="722,-1292 618,-1292 618,-1256 722,-1256 722,-1292"/>
<text text-anchor="middle" x="670" y="-1271.2" font-family="Courier,monospace" font-size="11.00">GameContainer</text>
</g>
<!-- \\TournamentGenerator\\Containers\\GameContainer&#45;&gt;\\TournamentGenerator\\Containers\\BaseContainer -->
<g id="edge36" class="edge">
<title>\\TournamentGenerator\\Containers\\GameContainer&#45;&gt;\\TournamentGenerator\\Containers\\BaseContainer</title>
<path fill="none" stroke="black" d="M620.64,-1292.04C613.96,-1294.87 607.25,-1297.89 601,-1301 566.55,-1318.14 529.25,-1341.18 502.86,-1358.3"/>
<polygon fill="none" stroke="black" points="500.81,-1355.46 494.35,-1363.87 504.64,-1361.32 500.81,-1355.46"/>
</g>
<!-- \\TournamentGenerator\\Containers\\HierarchyContainer -->
<g id="node4" class="node">
<title>\\TournamentGenerator\\Containers\\HierarchyContainer</title>
<polygon fill="none" stroke="black" points="739,-1400 601,-1400 601,-1364 739,-1364 739,-1400"/>
<text text-anchor="middle" x="670" y="-1379.2" font-family="Courier,monospace" font-size="11.00">HierarchyContainer</text>
</g>
<!-- \\TournamentGenerator\\Containers\\HierarchyContainer&#45;&gt;\\TournamentGenerator\\Containers\\BaseContainer -->
<g id="edge37" class="edge">
<title>\\TournamentGenerator\\Containers\\HierarchyContainer&#45;&gt;\\TournamentGenerator\\Containers\\BaseContainer</title>
<path fill="none" stroke="black" d="M600.78,-1382C577.51,-1382 551.65,-1382 528.95,-1382"/>
<polygon fill="none" stroke="black" points="528.76,-1378.5 518.76,-1382 528.76,-1385.5 528.76,-1378.5"/>
</g>
<!-- \\TournamentGenerator\\Containers\\TeamContainer -->
<g id="node5" class="node">
<title>\\TournamentGenerator\\Containers\\TeamContainer</title>
<polygon fill="none" stroke="black" points="722,-1346 618,-1346 618,-1310 722,-1310 722,-1346"/>
<text text-anchor="middle" x="670" y="-1325.2" font-family="Courier,monospace" font-size="11.00">TeamContainer</text>
</g>
<!-- \\TournamentGenerator\\Containers\\TeamContainer&#45;&gt;\\TournamentGenerator\\Containers\\BaseContainer -->
<g id="edge38" class="edge">
<title>\\TournamentGenerator\\Containers\\TeamContainer&#45;&gt;\\TournamentGenerator\\Containers\\BaseContainer</title>
<path fill="none" stroke="black" d="M617.89,-1341.7C590.67,-1348.99 557,-1358.01 528.43,-1365.67"/>
<polygon fill="none" stroke="black" points="527.31,-1362.35 518.55,-1368.32 529.12,-1369.11 527.31,-1362.35"/>
</g>
<!-- \\TournamentGenerator\\Helpers\\Sorter\\GameSorter -->
<g id="node6" class="node">
<title>\\TournamentGenerator\\Helpers\\Sorter\\GameSorter</title>
<polygon fill="none" stroke="black" points="508.5,-1184 424.5,-1184 424.5,-1148 508.5,-1148 508.5,-1184"/>
<text text-anchor="middle" x="466.5" y="-1163.2" font-family="Courier,monospace" font-size="11.00">GameSorter</text>
</g>
<!-- \\TournamentGenerator\\Helpers\\Sorter\\BaseSorter -->
<g id="node8" class="node">
<title>\\TournamentGenerator\\Helpers\\Sorter\\BaseSorter</title>
<polygon fill="none" stroke="black" points="298,-1157 214,-1157 214,-1121 298,-1121 298,-1157"/>
<text text-anchor="middle" x="256" y="-1136.2" font-family="Courier,monospace" font-size="11.00">BaseSorter</text>
</g>
<!-- \\TournamentGenerator\\Helpers\\Sorter\\GameSorter&#45;&gt;\\TournamentGenerator\\Helpers\\Sorter\\BaseSorter -->
<g id="edge39" class="edge">
<title>\\TournamentGenerator\\Helpers\\Sorter\\GameSorter&#45;&gt;\\TournamentGenerator\\Helpers\\Sorter\\BaseSorter</title>
<path fill="none" stroke="black" stroke-dasharray="1,5" d="M424.31,-1160.67C391.04,-1156.36 344.05,-1150.27 308.33,-1145.65"/>
<polygon fill="none" stroke="black" points="308.47,-1142.14 298.11,-1144.32 307.57,-1149.08 308.47,-1142.14"/>
</g>
<!-- \\TournamentGenerator\\Helpers\\Sorter\\TeamSorter -->
<g id="node7" class="node">
<title>\\TournamentGenerator\\Helpers\\Sorter\\TeamSorter</title>
<polygon fill="none" stroke="black" points="508.5,-1130 424.5,-1130 424.5,-1094 508.5,-1094 508.5,-1130"/>
<text text-anchor="middle" x="466.5" y="-1109.2" font-family="Courier,monospace" font-size="11.00">TeamSorter</text>
</g>
<!-- \\TournamentGenerator\\Helpers\\Sorter\\TeamSorter&#45;&gt;\\TournamentGenerator\\Helpers\\Sorter\\BaseSorter -->
<g id="edge40" class="edge">
<title>\\TournamentGenerator\\Helpers\\Sorter\\TeamSorter&#45;&gt;\\TournamentGenerator\\Helpers\\Sorter\\BaseSorter</title>
<path fill="none" stroke="black" stroke-dasharray="1,5" d="M424.31,-1117.33C391.04,-1121.64 344.05,-1127.73 308.33,-1132.35"/>
<polygon fill="none" stroke="black" points="307.57,-1128.92 298.11,-1133.68 308.47,-1135.86 307.57,-1128.92"/>
</g>
<!-- \\TournamentGenerator\\Helpers\\Filter -->
<g id="node9" class="node">
<title>\\TournamentGenerator\\Helpers\\Filter</title>
<polygon fill="none" stroke="black" points="495,-1076 438,-1076 438,-1040 495,-1040 495,-1076"/>
<text text-anchor="middle" x="466.5" y="-1055.2" font-family="Courier,monospace" font-size="11.00">Filter</text>
</g>
<!-- \\TournamentGenerator\\Helpers\\FilterComparator -->
<g id="node10" class="node">
<title>\\TournamentGenerator\\Helpers\\FilterComparator</title>
<polygon fill="none" stroke="black" points="529,-1022 404,-1022 404,-986 529,-986 529,-1022"/>
<text text-anchor="middle" x="466.5" y="-1001.2" font-family="Courier,monospace" font-size="11.00">FilterComparator</text>
</g>
<!-- \\TournamentGenerator\\Helpers\\Functions -->
<g id="node11" class="node">
<title>\\TournamentGenerator\\Helpers\\Functions</title>
<polygon fill="none" stroke="black" points="505,-968 428,-968 428,-932 505,-932 505,-968"/>
<text text-anchor="middle" x="466.5" y="-947.2" font-family="Courier,monospace" font-size="11.00">Functions</text>
</g>
<!-- \\TournamentGenerator\\Helpers\\Generator -->
<g id="node12" class="node">
<title>\\TournamentGenerator\\Helpers\\Generator</title>
<polygon fill="none" stroke="black" points="505,-914 428,-914 428,-878 505,-878 505,-914"/>
<text text-anchor="middle" x="466.5" y="-893.2" font-family="Courier,monospace" font-size="11.00">Generator</text>
</g>
<!-- \\TournamentGenerator\\Interfaces\\WithGeneratorSetters -->
<g id="node16" class="node">
<title>\\TournamentGenerator\\Interfaces\\WithGeneratorSetters</title>
<polygon fill="none" stroke="black" points="332,-735 180,-735 180,-699 332,-699 332,-735"/>
<text text-anchor="middle" x="256" y="-714.2" font-family="Courier,monospace" font-size="11.00">WithGeneratorSetters</text>
</g>
<!-- \\TournamentGenerator\\Helpers\\Generator&#45;&gt;\\TournamentGenerator\\Interfaces\\WithGeneratorSetters -->
<g id="edge13" class="edge">
<title>\\TournamentGenerator\\Helpers\\Generator&#45;&gt;\\TournamentGenerator\\Interfaces\\WithGeneratorSetters</title>
<path fill="none" stroke="black" stroke-dasharray="1,5" d="M427.82,-884.41C419.27,-880.51 410.74,-875.45 404,-869 359.75,-826.64 386.85,-784.17 340.1,-740.33"/>
<polygon fill="none" stroke="black" points="342.14,-737.47 332.29,-733.57 337.56,-742.76 342.14,-737.47"/>
</g>
<!-- \\TournamentGenerator\\Interfaces\\WithSkipSetters -->
<g id="node19" class="node">
<title>\\TournamentGenerator\\Interfaces\\WithSkipSetters</title>
<polygon fill="none" stroke="black" points="315,-681 197,-681 197,-645 315,-645 315,-681"/>
<text text-anchor="middle" x="256" y="-660.2" font-family="Courier,monospace" font-size="11.00">WithSkipSetters</text>
</g>
<!-- \\TournamentGenerator\\Helpers\\Generator&#45;&gt;\\TournamentGenerator\\Interfaces\\WithSkipSetters -->
<g id="edge14" class="edge">
<title>\\TournamentGenerator\\Helpers\\Generator&#45;&gt;\\TournamentGenerator\\Interfaces\\WithSkipSetters</title>
<path fill="none" stroke="black" stroke-dasharray="1,5" d="M427.92,-885.23C419.17,-881.28 410.52,-875.99 404,-869 346.39,-807.2 400.6,-748.87 340,-690 335.44,-685.57 330.13,-681.86 324.46,-678.76"/>
<polygon fill="none" stroke="black" points="325.83,-675.53 315.29,-674.38 322.81,-681.85 325.83,-675.53"/>
</g>
<!-- \\TournamentGenerator\\Helpers\\Simulator -->
<g id="node13" class="node">
<title>\\TournamentGenerator\\Helpers\\Simulator</title>
<polygon fill="none" stroke="black" points="505,-860 428,-860 428,-824 505,-824 505,-860"/>
<text text-anchor="middle" x="466.5" y="-839.2" font-family="Courier,monospace" font-size="11.00">Simulator</text>
</g>
<!-- \\TournamentGenerator\\Interfaces\\WithCategories -->
<g id="node14" class="node">
<title>\\TournamentGenerator\\Interfaces\\WithCategories</title>
<polygon fill="none" stroke="black" points="311.5,-627 200.5,-627 200.5,-591 311.5,-591 311.5,-627"/>
<text text-anchor="middle" x="256" y="-606.2" font-family="Courier,monospace" font-size="11.00">WithCategories</text>
</g>
<!-- \\TournamentGenerator\\Interfaces\\WithGames -->
<g id="node15" class="node">
<title>\\TournamentGenerator\\Interfaces\\WithGames</title>
<polygon fill="none" stroke="black" points="294.5,-573 217.5,-573 217.5,-537 294.5,-537 294.5,-573"/>
<text text-anchor="middle" x="256" y="-552.2" font-family="Courier,monospace" font-size="11.00">WithGames</text>
</g>
<!-- \\TournamentGenerator\\Interfaces\\WithGroups -->
<g id="node17" class="node">
<title>\\TournamentGenerator\\Interfaces\\WithGroups</title>
<polygon fill="none" stroke="black" points="298,-411 214,-411 214,-375 298,-375 298,-411"/>
<text text-anchor="middle" x="256" y="-390.2" font-family="Courier,monospace" font-size="11.00">WithGroups</text>
</g>
<!-- \\TournamentGenerator\\Interfaces\\WithRounds -->
<g id="node18" class="node">
<title>\\TournamentGenerator\\Interfaces\\WithRounds</title>
<polygon fill="none" stroke="black" points="298,-465 214,-465 214,-429 298,-429 298,-465"/>
<text text-anchor="middle" x="256" y="-444.2" font-family="Courier,monospace" font-size="11.00">WithRounds</text>
</g>
<!-- \\TournamentGenerator\\Interfaces\\WithTeams -->
<g id="node20" class="node">
<title>\\TournamentGenerator\\Interfaces\\WithTeams</title>
<polygon fill="none" stroke="black" points="294.5,-519 217.5,-519 217.5,-483 294.5,-483 294.5,-519"/>
<text text-anchor="middle" x="256" y="-498.2" font-family="Courier,monospace" font-size="11.00">WithTeams</text>
</g>
<!-- \\TournamentGenerator\\Preset\\DoubleElimination -->
<g id="node21" class="node">
<title>\\TournamentGenerator\\Preset\\DoubleElimination</title>
<polygon fill="none" stroke="black" points="735.5,-680 604.5,-680 604.5,-644 735.5,-644 735.5,-680"/>
<text text-anchor="middle" x="670" y="-659.2" font-family="Courier,monospace" font-size="11.00">DoubleElimination</text>
</g>
<!-- \\TournamentGenerator\\Preset\\Preset -->
<g id="node24" class="node">
<title>\\TournamentGenerator\\Preset\\Preset</title>
<polygon fill="none" stroke="black" points="495,-680 438,-680 438,-644 495,-644 495,-680"/>
<text text-anchor="middle" x="466.5" y="-659.2" font-family="Courier,monospace" font-size="11.00">Preset</text>
</g>
<!-- \\TournamentGenerator\\Preset\\DoubleElimination&#45;&gt;\\TournamentGenerator\\Preset\\Preset -->
<g id="edge16" class="edge">
<title>\\TournamentGenerator\\Preset\\DoubleElimination&#45;&gt;\\TournamentGenerator\\Preset\\Preset</title>
<path fill="none" stroke="black" stroke-dasharray="1,5" d="M604.41,-662C571.65,-662 533,-662 505.13,-662"/>
<polygon fill="none" stroke="black" points="505.02,-658.5 495.02,-662 505.02,-665.5 505.02,-658.5"/>
</g>
<!-- \\TournamentGenerator\\Tournament -->
<g id="node41" class="node">
<title>\\TournamentGenerator\\Tournament</title>
<polygon fill="none" stroke="black" points="508.5,-520 424.5,-520 424.5,-484 508.5,-484 508.5,-520"/>
<text text-anchor="middle" x="466.5" y="-499.2" font-family="Courier,monospace" font-size="11.00">Tournament</text>
</g>
<!-- \\TournamentGenerator\\Preset\\DoubleElimination&#45;&gt;\\TournamentGenerator\\Tournament -->
<g id="edge15" class="edge">
<title>\\TournamentGenerator\\Preset\\DoubleElimination&#45;&gt;\\TournamentGenerator\\Tournament</title>
<path fill="none" stroke="black" d="M614.08,-643.98C609.42,-641.35 604.97,-638.37 601,-635 559.01,-599.43 579.12,-564.41 537,-529 531.35,-524.25 524.76,-520.27 517.94,-516.96"/>
<polygon fill="none" stroke="black" points="519.12,-513.66 508.55,-512.85 516.31,-520.07 519.12,-513.66"/>
</g>
<!-- \\TournamentGenerator\\Preset\\R2G -->
<g id="node22" class="node">
<title>\\TournamentGenerator\\Preset\\R2G</title>
<polygon fill="none" stroke="black" points="697,-626 643,-626 643,-590 697,-590 697,-626"/>
<text text-anchor="middle" x="670" y="-605.2" font-family="Courier,monospace" font-size="11.00">R2G</text>
</g>
<!-- \\TournamentGenerator\\Preset\\R2G&#45;&gt;\\TournamentGenerator\\Preset\\Preset -->
<g id="edge18" class="edge">
<title>\\TournamentGenerator\\Preset\\R2G&#45;&gt;\\TournamentGenerator\\Preset\\Preset</title>
<path fill="none" stroke="black" stroke-dasharray="1,5" d="M642.66,-615.06C607.45,-624.49 544.85,-641.27 504.81,-652"/>
<polygon fill="none" stroke="black" points="503.89,-648.62 495.14,-654.59 505.71,-655.38 503.89,-648.62"/>
</g>
<!-- \\TournamentGenerator\\Preset\\R2G&#45;&gt;\\TournamentGenerator\\Tournament -->
<g id="edge17" class="edge">
<title>\\TournamentGenerator\\Preset\\R2G&#45;&gt;\\TournamentGenerator\\Tournament</title>
<path fill="none" stroke="black" d="M642.77,-598.14C629.84,-592.85 614.21,-585.82 601,-578 570.17,-559.75 568.23,-546.55 537,-529 531.09,-525.68 524.68,-522.58 518.23,-519.76"/>
<polygon fill="none" stroke="black" points="519.39,-516.45 508.81,-515.83 516.69,-522.91 519.39,-516.45"/>
</g>
<!-- \\TournamentGenerator\\Preset\\SingleElimination -->
<g id="node23" class="node">
<title>\\TournamentGenerator\\Preset\\SingleElimination</title>
<polygon fill="none" stroke="black" points="735.5,-734 604.5,-734 604.5,-698 735.5,-698 735.5,-734"/>
<text text-anchor="middle" x="670" y="-713.2" font-family="Courier,monospace" font-size="11.00">SingleElimination</text>
</g>
<!-- \\TournamentGenerator\\Preset\\SingleElimination&#45;&gt;\\TournamentGenerator\\Preset\\Preset -->
<g id="edge20" class="edge">
<title>\\TournamentGenerator\\Preset\\SingleElimination&#45;&gt;\\TournamentGenerator\\Preset\\Preset</title>
<path fill="none" stroke="black" stroke-dasharray="1,5" d="M604.41,-698.69C571.5,-689.87 532.66,-679.46 504.77,-671.99"/>
<polygon fill="none" stroke="black" points="505.58,-668.58 495.02,-669.37 503.77,-675.34 505.58,-668.58"/>
</g>
<!-- \\TournamentGenerator\\Preset\\SingleElimination&#45;&gt;\\TournamentGenerator\\Tournament -->
<g id="edge19" class="edge">
<title>\\TournamentGenerator\\Preset\\SingleElimination&#45;&gt;\\TournamentGenerator\\Tournament</title>
<path fill="none" stroke="black" d="M612.16,-697.82C608.11,-695.24 604.33,-692.32 601,-689 546.77,-634.91 591.43,-582.89 537,-529 531.62,-523.68 525.08,-519.38 518.18,-515.91"/>
<polygon fill="none" stroke="black" points="519.2,-512.53 508.64,-511.68 516.36,-518.93 519.2,-512.53"/>
</g>
<!-- \\TournamentGenerator\\Traits\\WithCategories -->
<g id="node25" class="node">
<title>\\TournamentGenerator\\Traits\\WithCategories</title>
<polygon fill="none" stroke="black" points="725.5,-546 614.5,-546 614.5,-510 725.5,-510 725.5,-546"/>
<text text-anchor="middle" x="670" y="-525.2" font-family="Courier,monospace" font-size="11.00">WithCategories</text>
</g>
<!-- \\TournamentGenerator\\Traits\\WithGames -->
<g id="node26" class="node">
<title>\\TournamentGenerator\\Traits\\WithGames</title>
<polygon fill="none" stroke="black" points="708.5,-492 631.5,-492 631.5,-456 708.5,-456 708.5,-492"/>
<text text-anchor="middle" x="670" y="-471.2" font-family="Courier,monospace" font-size="11.00">WithGames</text>
</g>
<!-- \\TournamentGenerator\\Traits\\WithGroups -->
<g id="node27" class="node">
<title>\\TournamentGenerator\\Traits\\WithGroups</title>
<polygon fill="none" stroke="black" points="712,-438 628,-438 628,-402 712,-402 712,-438"/>
<text text-anchor="middle" x="670" y="-417.2" font-family="Courier,monospace" font-size="11.00">WithGroups</text>
</g>
<!-- \\TournamentGenerator\\Traits\\WithRounds -->
<g id="node28" class="node">
<title>\\TournamentGenerator\\Traits\\WithRounds</title>
<polygon fill="none" stroke="black" points="712,-384 628,-384 628,-348 712,-348 712,-384"/>
<text text-anchor="middle" x="670" y="-363.2" font-family="Courier,monospace" font-size="11.00">WithRounds</text>
</g>
<!-- \\TournamentGenerator\\Traits\\WithSkipSetters -->
<g id="node29" class="node">
<title>\\TournamentGenerator\\Traits\\WithSkipSetters</title>
<polygon fill="none" stroke="black" points="729,-330 611,-330 611,-294 729,-294 729,-330"/>
<text text-anchor="middle" x="670" y="-309.2" font-family="Courier,monospace" font-size="11.00">WithSkipSetters</text>
</g>
<!-- \\TournamentGenerator\\Traits\\WithTeams -->
<g id="node30" class="node">
<title>\\TournamentGenerator\\Traits\\WithTeams</title>
<polygon fill="none" stroke="black" points="708.5,-276 631.5,-276 631.5,-240 708.5,-240 708.5,-276"/>
<text text-anchor="middle" x="670" y="-255.2" font-family="Courier,monospace" font-size="11.00">WithTeams</text>
</g>
<!-- \\TournamentGenerator\\Base -->
<g id="node31" class="node">
<title>\\TournamentGenerator\\Base</title>
<polygon fill="none" stroke="black" points="108,-582 24,-582 24,-546 108,-546 108,-582"/>
<text text-anchor="start" x="32" y="-567.2" font-family="Courier,monospace" font-size="11.00">«abstract»</text>
<text text-anchor="start" x="52" y="-555.2" font-family="Courier,monospace" font-size="11.00">Base</text>
</g>
<!-- \\TournamentGenerator\\BlankTeam -->
<g id="node32" class="node">
<title>\\TournamentGenerator\\BlankTeam</title>
<polygon fill="none" stroke="black" points="505,-806 428,-806 428,-770 505,-770 505,-806"/>
<text text-anchor="middle" x="466.5" y="-785.2" font-family="Courier,monospace" font-size="11.00">BlankTeam</text>
</g>
<!-- \\TournamentGenerator\\Team -->
<g id="node39" class="node">
<title>\\TournamentGenerator\\Team</title>
<polygon fill="none" stroke="black" points="283,-807 229,-807 229,-771 283,-771 283,-807"/>
<text text-anchor="middle" x="256" y="-786.2" font-family="Courier,monospace" font-size="11.00">Team</text>
</g>
<!-- \\TournamentGenerator\\BlankTeam&#45;&gt;\\TournamentGenerator\\Team -->
<g id="edge1" class="edge">
<title>\\TournamentGenerator\\BlankTeam&#45;&gt;\\TournamentGenerator\\Team</title>
<path fill="none" stroke="black" d="M427.74,-788.18C389.56,-788.36 330.94,-788.65 293.29,-788.83"/>
<polygon fill="none" stroke="black" points="293.24,-785.33 283.26,-788.87 293.27,-792.33 293.24,-785.33"/>
</g>
<!-- \\TournamentGenerator\\Category -->
<g id="node33" class="node">
<title>\\TournamentGenerator\\Category</title>
<polygon fill="none" stroke="black" points="502,-412 431,-412 431,-376 502,-376 502,-412"/>
<text text-anchor="middle" x="466.5" y="-391.2" font-family="Courier,monospace" font-size="11.00">Category</text>
</g>
<!-- \\TournamentGenerator\\Category&#45;&gt;\\TournamentGenerator\\Interfaces\\WithGames -->
<g id="edge7" class="edge">
<title>\\TournamentGenerator\\Category&#45;&gt;\\TournamentGenerator\\Interfaces\\WithGames</title>
<path fill="none" stroke="black" stroke-dasharray="1,5" d="M430.75,-404.85C421.37,-408.9 411.7,-414.21 404,-421 362.44,-457.65 383.33,-493.45 340,-528 329.81,-536.13 317.1,-541.84 304.71,-545.84"/>
<polygon fill="none" stroke="black" points="303.52,-542.54 294.9,-548.7 305.48,-549.26 303.52,-542.54"/>
</g>
<!-- \\TournamentGenerator\\Category&#45;&gt;\\TournamentGenerator\\Interfaces\\WithGroups -->
<g id="edge6" class="edge">
<title>\\TournamentGenerator\\Category&#45;&gt;\\TournamentGenerator\\Interfaces\\WithGroups</title>
<path fill="none" stroke="black" stroke-dasharray="1,5" d="M430.6,-393.83C397.22,-393.67 346.48,-393.43 308.47,-393.25"/>
<polygon fill="none" stroke="black" points="308.12,-389.75 298.11,-393.2 308.09,-396.75 308.12,-389.75"/>
</g>
<!-- \\TournamentGenerator\\Category&#45;&gt;\\TournamentGenerator\\Interfaces\\WithRounds -->
<g id="edge4" class="edge">
<title>\\TournamentGenerator\\Category&#45;&gt;\\TournamentGenerator\\Interfaces\\WithRounds</title>
<path fill="none" stroke="black" stroke-dasharray="1,5" d="M430.6,-402.87C397.08,-411.39 346.05,-424.36 307.98,-434.04"/>
<polygon fill="none" stroke="black" points="306.94,-430.7 298.11,-436.55 308.66,-437.48 306.94,-430.7"/>
</g>
<!-- \\TournamentGenerator\\Category&#45;&gt;\\TournamentGenerator\\Interfaces\\WithSkipSetters -->
<g id="edge3" class="edge">
<title>\\TournamentGenerator\\Category&#45;&gt;\\TournamentGenerator\\Interfaces\\WithSkipSetters</title>
<path fill="none" stroke="black" stroke-dasharray="1,5" d="M430.86,-403.14C421.04,-407.21 411.1,-412.96 404,-421 338.02,-495.74 409.6,-564.62 340,-636 335.49,-640.63 330.17,-644.46 324.45,-647.64"/>
<polygon fill="none" stroke="black" points="322.67,-644.62 315.18,-652.11 325.71,-650.92 322.67,-644.62"/>
</g>
<!-- \\TournamentGenerator\\Category&#45;&gt;\\TournamentGenerator\\Interfaces\\WithTeams -->
<g id="edge5" class="edge">
<title>\\TournamentGenerator\\Category&#45;&gt;\\TournamentGenerator\\Interfaces\\WithTeams</title>
<path fill="none" stroke="black" stroke-dasharray="1,5" d="M430.81,-407.22C421.82,-411.18 412.34,-415.86 404,-421 372.57,-440.39 372.36,-456.19 340,-474 329.01,-480.05 316.44,-485.01 304.47,-488.95"/>
<polygon fill="none" stroke="black" points="303.11,-485.71 294.6,-492.03 305.19,-492.4 303.11,-485.71"/>
</g>
<!-- \\TournamentGenerator\\HierarchyBase -->
<g id="node42" class="node">
<title>\\TournamentGenerator\\HierarchyBase</title>
<polygon fill="none" stroke="black" points="308,-357 204,-357 204,-321 308,-321 308,-357"/>
<text text-anchor="start" x="222" y="-342.2" font-family="Courier,monospace" font-size="11.00">«abstract»</text>
<text text-anchor="start" x="212" y="-330.2" font-family="Courier,monospace" font-size="11.00">HierarchyBase</text>
</g>
<!-- \\TournamentGenerator\\Category&#45;&gt;\\TournamentGenerator\\HierarchyBase -->
<g id="edge2" class="edge">
<title>\\TournamentGenerator\\Category&#45;&gt;\\TournamentGenerator\\HierarchyBase</title>
<path fill="none" stroke="black" d="M430.6,-384.79C399.98,-376.72 354.74,-364.78 318.12,-355.12"/>
<polygon fill="none" stroke="black" points="318.61,-351.63 308.04,-352.46 316.82,-358.4 318.61,-351.63"/>
</g>
<!-- \\TournamentGenerator\\Constants -->
<g id="node34" class="node">
<title>\\TournamentGenerator\\Constants</title>
<polygon fill="none" stroke="black" points="708.5,-222 631.5,-222 631.5,-186 708.5,-186 708.5,-222"/>
<text text-anchor="middle" x="670" y="-201.2" font-family="Courier,monospace" font-size="11.00">Constants</text>
</g>
<!-- \\TournamentGenerator\\Game -->
<g id="node35" class="node">
<title>\\TournamentGenerator\\Game</title>
<polygon fill="none" stroke="black" points="697,-168 643,-168 643,-132 697,-132 697,-168"/>
<text text-anchor="middle" x="670" y="-147.2" font-family="Courier,monospace" font-size="11.00">Game</text>
</g>
<!-- \\TournamentGenerator\\Group -->
<g id="node36" class="node">
<title>\\TournamentGenerator\\Group</title>
<polygon fill="none" stroke="black" points="493.5,-574 439.5,-574 439.5,-538 493.5,-538 493.5,-574"/>
<text text-anchor="middle" x="466.5" y="-553.2" font-family="Courier,monospace" font-size="11.00">Group</text>
</g>
<!-- \\TournamentGenerator\\Group&#45;&gt;\\TournamentGenerator\\Interfaces\\WithGames -->
<g id="edge12" class="edge">
<title>\\TournamentGenerator\\Group&#45;&gt;\\TournamentGenerator\\Interfaces\\WithGames</title>
<path fill="none" stroke="black" stroke-dasharray="1,5" d="M439.09,-555.87C405.45,-555.71 346.69,-555.43 305.03,-555.23"/>
<polygon fill="none" stroke="black" points="304.84,-551.73 294.83,-555.18 304.81,-558.73 304.84,-551.73"/>
</g>
<!-- \\TournamentGenerator\\Group&#45;&gt;\\TournamentGenerator\\Interfaces\\WithGeneratorSetters -->
<g id="edge9" class="edge">
<title>\\TournamentGenerator\\Group&#45;&gt;\\TournamentGenerator\\Interfaces\\WithGeneratorSetters</title>
<path fill="none" stroke="black" stroke-dasharray="1,5" d="M439.48,-560.96C427.65,-564.24 414.08,-569.55 404,-578 360.06,-614.83 384.47,-653.81 340,-690 338.46,-691.26 336.85,-692.45 335.2,-693.6"/>
<polygon fill="none" stroke="black" points="333.29,-690.66 326.57,-698.86 336.93,-696.64 333.29,-690.66"/>
</g>
<!-- \\TournamentGenerator\\Group&#45;&gt;\\TournamentGenerator\\Interfaces\\WithSkipSetters -->
<g id="edge10" class="edge">
<title>\\TournamentGenerator\\Group&#45;&gt;\\TournamentGenerator\\Interfaces\\WithSkipSetters</title>
<path fill="none" stroke="black" stroke-dasharray="1,5" d="M439.36,-562.85C428.03,-566.44 414.89,-571.47 404,-578 371.07,-597.73 373.21,-616.75 340,-636 335.17,-638.8 330,-641.36 324.7,-643.68"/>
<polygon fill="none" stroke="black" points="323.01,-640.59 315.07,-647.61 325.65,-647.07 323.01,-640.59"/>
</g>
<!-- \\TournamentGenerator\\Group&#45;&gt;\\TournamentGenerator\\Interfaces\\WithTeams -->
<g id="edge11" class="edge">
<title>\\TournamentGenerator\\Group&#45;&gt;\\TournamentGenerator\\Interfaces\\WithTeams</title>
<path fill="none" stroke="black" stroke-dasharray="1,5" d="M439.09,-549.03C405.31,-540.12 346.19,-524.53 304.5,-513.53"/>
<polygon fill="none" stroke="black" points="305.39,-510.14 294.83,-510.98 303.6,-516.91 305.39,-510.14"/>
</g>
<!-- \\TournamentGenerator\\Group&#45;&gt;\\TournamentGenerator\\HierarchyBase -->
<g id="edge8" class="edge">
<title>\\TournamentGenerator\\Group&#45;&gt;\\TournamentGenerator\\HierarchyBase</title>
<path fill="none" stroke="black" d="M439.44,-549.59C427.31,-545.46 413.5,-538.95 404,-529 349.38,-471.83 398.28,-416.44 340,-363 333.64,-357.17 325.95,-352.75 317.85,-349.4"/>
<polygon fill="none" stroke="black" points="318.8,-346.02 308.21,-345.93 316.44,-352.61 318.8,-346.02"/>
</g>
<!-- \\TournamentGenerator\\Progression -->
<g id="node37" class="node">
<title>\\TournamentGenerator\\Progression</title>
<polygon fill="none" stroke="black" points="715.5,-114 624.5,-114 624.5,-78 715.5,-78 715.5,-114"/>
<text text-anchor="middle" x="670" y="-93.2" font-family="Courier,monospace" font-size="11.00">Progression</text>
</g>
<!-- \\TournamentGenerator\\Round -->
<g id="node38" class="node">
<title>\\TournamentGenerator\\Round</title>
<polygon fill="none" stroke="black" points="493.5,-466 439.5,-466 439.5,-430 493.5,-430 493.5,-466"/>
<text text-anchor="middle" x="466.5" y="-445.2" font-family="Courier,monospace" font-size="11.00">Round</text>
</g>
<!-- \\TournamentGenerator\\Round&#45;&gt;\\TournamentGenerator\\Interfaces\\WithGames -->
<g id="edge25" class="edge">
<title>\\TournamentGenerator\\Round&#45;&gt;\\TournamentGenerator\\Interfaces\\WithGames</title>
<path fill="none" stroke="black" stroke-dasharray="1,5" d="M439.26,-457.63C428.04,-462.23 415.02,-468.21 404,-475 372.57,-494.39 372.36,-510.19 340,-528 329.01,-534.05 316.44,-539.01 304.47,-542.95"/>
<polygon fill="none" stroke="black" points="303.11,-539.71 294.6,-546.03 305.19,-546.4 303.11,-539.71"/>
</g>
<!-- \\TournamentGenerator\\Round&#45;&gt;\\TournamentGenerator\\Interfaces\\WithGroups -->
<g id="edge24" class="edge">
<title>\\TournamentGenerator\\Round&#45;&gt;\\TournamentGenerator\\Interfaces\\WithGroups</title>
<path fill="none" stroke="black" stroke-dasharray="1,5" d="M439.09,-441.03C406.29,-432.38 349.61,-417.43 308.18,-406.5"/>
<polygon fill="none" stroke="black" points="308.82,-403.05 298.26,-403.88 307.04,-409.82 308.82,-403.05"/>
</g>
<!-- \\TournamentGenerator\\Round&#45;&gt;\\TournamentGenerator\\Interfaces\\WithSkipSetters -->
<g id="edge22" class="edge">
<title>\\TournamentGenerator\\Round&#45;&gt;\\TournamentGenerator\\Interfaces\\WithSkipSetters</title>
<path fill="none" stroke="black" stroke-dasharray="1,5" d="M439.48,-454.45C427.37,-458.59 413.56,-465.1 404,-475 350.52,-530.4 396.16,-583.32 340,-636 335.36,-640.35 330.01,-644.01 324.3,-647.07"/>
<polygon fill="none" stroke="black" points="322.64,-643.98 315.1,-651.42 325.63,-650.31 322.64,-643.98"/>
</g>
<!-- \\TournamentGenerator\\Round&#45;&gt;\\TournamentGenerator\\Interfaces\\WithTeams -->
<g id="edge23" class="edge">
<title>\\TournamentGenerator\\Round&#45;&gt;\\TournamentGenerator\\Interfaces\\WithTeams</title>
<path fill="none" stroke="black" stroke-dasharray="1,5" d="M439.09,-454.71C405.38,-463.28 346.44,-478.26 304.76,-488.86"/>
<polygon fill="none" stroke="black" points="303.66,-485.53 294.83,-491.38 305.38,-492.31 303.66,-485.53"/>
</g>
<!-- \\TournamentGenerator\\Round&#45;&gt;\\TournamentGenerator\\HierarchyBase -->
<g id="edge21" class="edge">
<title>\\TournamentGenerator\\Round&#45;&gt;\\TournamentGenerator\\HierarchyBase</title>
<path fill="none" stroke="black" d="M439.42,-438.72C428.1,-434.16 414.96,-428.1 404,-421 371.79,-400.12 373.52,-381.7 340,-363 333.02,-359.1 325.34,-355.79 317.56,-352.98"/>
<polygon fill="none" stroke="black" points="318.66,-349.66 308.07,-349.81 316.44,-356.3 318.66,-349.66"/>
</g>
<!-- \\TournamentGenerator\\Team&#45;&gt;\\TournamentGenerator\\Base -->
<g id="edge26" class="edge">
<title>\\TournamentGenerator\\Team&#45;&gt;\\TournamentGenerator\\Base</title>
<path fill="none" stroke="black" d="M228.96,-787.54C211.24,-785.34 188.16,-779.97 172,-767 114.85,-721.13 85.51,-635.79 73.6,-591.8"/>
<polygon fill="none" stroke="black" points="76.97,-590.86 71.06,-582.06 70.19,-592.62 76.97,-590.86"/>
</g>
<!-- \\TournamentGenerator\\TeamFilter -->
<g id="node40" class="node">
<title>\\TournamentGenerator\\TeamFilter</title>
<polygon fill="none" stroke="black" points="712,-60 628,-60 628,-24 712,-24 712,-60"/>
<text text-anchor="middle" x="670" y="-39.2" font-family="Courier,monospace" font-size="11.00">TeamFilter</text>
</g>
<!-- \\TournamentGenerator\\Tournament&#45;&gt;\\TournamentGenerator\\Interfaces\\WithCategories -->
<g id="edge31" class="edge">
<title>\\TournamentGenerator\\Tournament&#45;&gt;\\TournamentGenerator\\Interfaces\\WithCategories</title>
<path fill="none" stroke="black" stroke-dasharray="1,5" d="M424.33,-518.17C417.37,-521.44 410.35,-525.08 404,-529 372.57,-548.39 372.36,-564.19 340,-582 334.11,-585.24 327.78,-588.17 321.32,-590.79"/>
<polygon fill="none" stroke="black" points="319.91,-587.59 311.82,-594.43 322.41,-594.12 319.91,-587.59"/>
</g>
<!-- \\TournamentGenerator\\Tournament&#45;&gt;\\TournamentGenerator\\Interfaces\\WithGames -->
<g id="edge33" class="edge">
<title>\\TournamentGenerator\\Tournament&#45;&gt;\\TournamentGenerator\\Interfaces\\WithGames</title>
<path fill="none" stroke="black" stroke-dasharray="1,5" d="M424.31,-512.47C389.81,-521.24 340.56,-533.76 304.42,-542.94"/>
<polygon fill="none" stroke="black" points="303.43,-539.59 294.6,-545.44 305.16,-546.37 303.43,-539.59"/>
</g>
<!-- \\TournamentGenerator\\Tournament&#45;&gt;\\TournamentGenerator\\Interfaces\\WithGroups -->
<g id="edge32" class="edge">
<title>\\TournamentGenerator\\Tournament&#45;&gt;\\TournamentGenerator\\Interfaces\\WithGroups</title>
<path fill="none" stroke="black" stroke-dasharray="1,5" d="M424.27,-485.93C417.32,-482.65 410.32,-478.98 404,-475 372.26,-455.02 372.69,-438.38 340,-420 329.99,-414.37 318.63,-409.71 307.6,-405.93"/>
<polygon fill="none" stroke="black" points="308.62,-402.59 298.03,-402.84 306.47,-409.25 308.62,-402.59"/>
</g>
<!-- \\TournamentGenerator\\Tournament&#45;&gt;\\TournamentGenerator\\Interfaces\\WithRounds -->
<g id="edge30" class="edge">
<title>\\TournamentGenerator\\Tournament&#45;&gt;\\TournamentGenerator\\Interfaces\\WithRounds</title>
<path fill="none" stroke="black" stroke-dasharray="1,5" d="M424.31,-491.13C390.9,-482.32 343.64,-469.86 307.87,-460.42"/>
<polygon fill="none" stroke="black" points="308.67,-457.01 298.11,-457.84 306.88,-463.78 308.67,-457.01"/>
</g>
<!-- \\TournamentGenerator\\Tournament&#45;&gt;\\TournamentGenerator\\Interfaces\\WithSkipSetters -->
<g id="edge28" class="edge">
<title>\\TournamentGenerator\\Tournament&#45;&gt;\\TournamentGenerator\\Interfaces\\WithSkipSetters</title>
<path fill="none" stroke="black" stroke-dasharray="1,5" d="M424.33,-515.81C417.07,-519.39 409.95,-523.76 404,-529 362.44,-565.65 383.33,-601.45 340,-636 335.29,-639.75 330.05,-642.99 324.55,-645.78"/>
<polygon fill="none" stroke="black" points="322.76,-642.75 315.1,-650.07 325.65,-649.13 322.76,-642.75"/>
</g>
<!-- \\TournamentGenerator\\Tournament&#45;&gt;\\TournamentGenerator\\Interfaces\\WithTeams -->
<g id="edge29" class="edge">
<title>\\TournamentGenerator\\Tournament&#45;&gt;\\TournamentGenerator\\Interfaces\\WithTeams</title>
<path fill="none" stroke="black" stroke-dasharray="1,5" d="M424.31,-501.8C389.96,-501.64 340.98,-501.4 304.89,-501.23"/>
<polygon fill="none" stroke="black" points="304.62,-497.73 294.6,-501.18 304.59,-504.73 304.62,-497.73"/>
</g>
<!-- \\TournamentGenerator\\Tournament&#45;&gt;\\TournamentGenerator\\HierarchyBase -->
<g id="edge27" class="edge">
<title>\\TournamentGenerator\\Tournament&#45;&gt;\\TournamentGenerator\\HierarchyBase</title>
<path fill="none" stroke="black" d="M424.25,-488.28C417,-484.69 409.89,-480.3 404,-475 361.38,-436.65 385.06,-398.45 340,-363 333.39,-357.8 325.7,-353.73 317.71,-350.54"/>
<polygon fill="none" stroke="black" points="318.84,-347.22 308.24,-347.18 316.5,-353.82 318.84,-347.22"/>
</g>
<!-- \\TournamentGenerator\\HierarchyBase&#45;&gt;\\TournamentGenerator\\Base -->
<g id="edge41" class="edge">
<title>\\TournamentGenerator\\HierarchyBase&#45;&gt;\\TournamentGenerator\\Base</title>
<path fill="none" stroke="black" d="M203.99,-346.8C192.59,-350.34 181.17,-355.5 172,-363 115.97,-408.82 86.26,-492.49 73.97,-536.01"/>
<polygon fill="none" stroke="black" points="70.52,-535.35 71.28,-545.92 77.28,-537.19 70.52,-535.35"/>
</g>
</g>
</svg>
