<?xml version="1.0" encoding="UTF-8" standalone="no"?>
<!DOCTYPE svg PUBLIC "-//W3C//DTD SVG 1.1//EN"
 "http://www.w3.org/Graphics/SVG/1.1/DTD/svg11.dtd">
<!-- Generated by graphviz version 2.46.0 (20210118.1747)
 -->
<!-- Title: G Pages: 1 -->
<svg width="779pt" height="1760pt"
 viewBox="0.00 0.00 779.00 1760.00" xmlns="http://www.w3.org/2000/svg" xmlns:xlink="http://www.w3.org/1999/xlink">
<g id="graph0" class="graph" transform="scale(1 1) rotate(0) translate(4 1756)">
<title>G</title>
<polygon fill="white" stroke="transparent" points="-4,4 -4,-1756 775,-1756 775,4 -4,4"/>
<g id="clust1" class="cluster">
<title>cluster_Global</title>
<polygon fill="none" stroke="black" points="8,-8 8,-1744 763,-1744 763,-8 8,-8"/>
<text text-anchor="middle" x="385.5" y="-1731.2" font-family="Times,serif" font-size="11.00" fill="gray">Global</text>
</g>
<g id="clust2" class="cluster">
<title>cluster_\TournamentGenerator</title>
<polygon fill="none" stroke="black" points="16,-16 16,-1618 755,-1618 755,-16 16,-16"/>
<text text-anchor="middle" x="385.5" y="-1605.2" font-family="Times,serif" font-size="11.00" fill="gray">TournamentGenerator</text>
</g>
<g id="clust3" class="cluster">
<title>cluster_\TournamentGenerator\Containers</title>
<polygon fill="none" stroke="black" points="406.5,-1356 406.5,-1590 747,-1590 747,-1356 406.5,-1356"/>
<text text-anchor="middle" x="576.75" y="-1577.2" font-family="Times,serif" font-size="11.00" fill="gray">Containers</text>
</g>
<g id="clust4" class="cluster">
<title>cluster_\TournamentGenerator\Helpers</title>
<polygon fill="none" stroke="black" points="198,-924 198,-1348 537,-1348 537,-924 198,-924"/>
<text text-anchor="middle" x="367.5" y="-1335.2" font-family="Times,serif" font-size="11.00" fill="gray">Helpers</text>
</g>
<g id="clust5" class="cluster">
<title>cluster_\TournamentGenerator\Helpers\Sorter</title>
<polygon fill="none" stroke="black" points="206,-1194 206,-1320 516.5,-1320 516.5,-1194 206,-1194"/>
<text text-anchor="middle" x="361.25" y="-1307.2" font-family="Times,serif" font-size="11.00" fill="gray">Sorter</text>
</g>
<g id="clust6" class="cluster">
<title>cluster_\TournamentGenerator\Interfaces</title>
<polygon fill="none" stroke="black" points="172,-475 172,-871 340,-871 340,-475 172,-475"/>
<text text-anchor="middle" x="256" y="-858.2" font-family="Times,serif" font-size="11.00" fill="gray">Interfaces</text>
</g>
<g id="clust7" class="cluster">
<title>cluster_\TournamentGenerator\Preset</title>
<polygon fill="none" stroke="black" points="430,-690 430,-870 743.5,-870 743.5,-690 430,-690"/>
<text text-anchor="middle" x="586.75" y="-857.2" font-family="Times,serif" font-size="11.00" fill="gray">Preset</text>
</g>
<g id="clust8" class="cluster">
<title>cluster_\TournamentGenerator\Traits</title>
<polygon fill="none" stroke="black" points="603,-232 603,-682 737,-682 737,-232 603,-232"/>
<text text-anchor="middle" x="670" y="-669.2" font-family="Times,serif" font-size="11.00" fill="gray">Traits</text>
</g>
<!-- \\TournamentGenerator\\Containers\\BaseContainer -->
<g id="node1" class="node">
<title>\\TournamentGenerator\\Containers\\BaseContainer</title>
<polygon fill="none" stroke="black" points="518.5,-1508 414.5,-1508 414.5,-1472 518.5,-1472 518.5,-1508"/>
<text text-anchor="middle" x="466.5" y="-1487.2" font-family="Courier,monospace" font-size="11.00">BaseContainer</text>
</g>
<!-- Countable -->
<g id="node45" class="node">
<title>Countable</title>
<ellipse fill="none" stroke="black" cx="256" cy="-1644" rx="46.59" ry="18"/>
<text text-anchor="middle" x="256" y="-1640.3" font-family="Times,serif" font-size="14.00" fill="gray">Countable</text>
</g>
<!-- \\TournamentGenerator\\Containers\\BaseContainer&#45;&gt;Countable -->
<g id="edge34" class="edge">
<title>\\TournamentGenerator\\Containers\\BaseContainer&#45;&gt;Countable</title>
<path fill="none" stroke="black" stroke-dasharray="1,5" d="M440.76,-1508.27C402.21,-1536.74 327.95,-1591.6 286.61,-1622.13"/>
<polygon fill="none" stroke="black" points="284.52,-1619.32 278.56,-1628.08 288.68,-1624.95 284.52,-1619.32"/>
</g>
<!-- Iterator -->
<g id="node46" class="node">
<title>Iterator</title>
<ellipse fill="none" stroke="black" cx="256" cy="-1698" rx="36.29" ry="18"/>
<text text-anchor="middle" x="256" y="-1694.3" font-family="Times,serif" font-size="14.00" fill="gray">Iterator</text>
</g>
<!-- \\TournamentGenerator\\Containers\\BaseContainer&#45;&gt;Iterator -->
<g id="edge35" class="edge">
<title>\\TournamentGenerator\\Containers\\BaseContainer&#45;&gt;Iterator</title>
<path fill="none" stroke="black" stroke-dasharray="1,5" d="M457.84,-1508.07C441.54,-1544.35 399.98,-1626.38 340,-1671 328.46,-1679.59 314.06,-1685.52 300.51,-1689.58"/>
<polygon fill="none" stroke="black" points="299.57,-1686.21 290.85,-1692.22 301.42,-1692.96 299.57,-1686.21"/>
</g>
<!-- \\TournamentGenerator\\Containers\\ContainerQuery -->
<g id="node2" class="node">
<title>\\TournamentGenerator\\Containers\\ContainerQuery</title>
<polygon fill="none" stroke="black" points="725.5,-1562 614.5,-1562 614.5,-1526 725.5,-1526 725.5,-1562"/>
<text text-anchor="middle" x="670" y="-1541.2" font-family="Courier,monospace" font-size="11.00">ContainerQuery</text>
</g>
<!-- \\TournamentGenerator\\Containers\\GameContainer -->
<g id="node3" class="node">
<title>\\TournamentGenerator\\Containers\\GameContainer</title>
<polygon fill="none" stroke="black" points="722,-1400 618,-1400 618,-1364 722,-1364 722,-1400"/>
<text text-anchor="middle" x="670" y="-1379.2" font-family="Courier,monospace" font-size="11.00">GameContainer</text>
</g>
<!-- \\TournamentGenerator\\Containers\\GameContainer&#45;&gt;\\TournamentGenerator\\Containers\\BaseContainer -->
<g id="edge36" class="edge">
<title>\\TournamentGenerator\\Containers\\GameContainer&#45;&gt;\\TournamentGenerator\\Containers\\BaseContainer</title>
<path fill="none" stroke="black" d="M620.64,-1400.04C613.96,-1402.87 607.25,-1405.89 601,-1409 566.55,-1426.14 529.25,-1449.18 502.86,-1466.3"/>
<polygon fill="none" stroke="black" points="500.81,-1463.46 494.35,-1471.87 504.64,-1469.32 500.81,-1463.46"/>
</g>
<!-- \\TournamentGenerator\\Containers\\HierarchyContainer -->
<g id="node4" class="node">
<title>\\TournamentGenerator\\Containers\\HierarchyContainer</title>
<polygon fill="none" stroke="black" points="739,-1508 601,-1508 601,-1472 739,-1472 739,-1508"/>
<text text-anchor="middle" x="670" y="-1487.2" font-family="Courier,monospace" font-size="11.00">HierarchyContainer</text>
</g>
<!-- \\TournamentGenerator\\Containers\\HierarchyContainer&#45;&gt;\\TournamentGenerator\\Containers\\BaseContainer -->
<g id="edge37" class="edge">
<title>\\TournamentGenerator\\Containers\\HierarchyContainer&#45;&gt;\\TournamentGenerator\\Containers\\BaseContainer</title>
<path fill="none" stroke="black" d="M600.78,-1490C577.51,-1490 551.65,-1490 528.95,-1490"/>
<polygon fill="none" stroke="black" points="528.76,-1486.5 518.76,-1490 528.76,-1493.5 528.76,-1486.5"/>
</g>
<!-- \\TournamentGenerator\\Containers\\TeamContainer -->
<g id="node5" class="node">
<title>\\TournamentGenerator\\Containers\\TeamContainer</title>
<polygon fill="none" stroke="black" points="722,-1454 618,-1454 618,-1418 722,-1418 722,-1454"/>
<text text-anchor="middle" x="670" y="-1433.2" font-family="Courier,monospace" font-size="11.00">TeamContainer</text>
</g>
<!-- \\TournamentGenerator\\Containers\\TeamContainer&#45;&gt;\\TournamentGenerator\\Containers\\BaseContainer -->
<g id="edge38" class="edge">
<title>\\TournamentGenerator\\Containers\\TeamContainer&#45;&gt;\\TournamentGenerator\\Containers\\BaseContainer</title>
<path fill="none" stroke="black" d="M617.89,-1449.7C590.67,-1456.99 557,-1466.01 528.43,-1473.67"/>
<polygon fill="none" stroke="black" points="527.31,-1470.35 518.55,-1476.32 529.12,-1477.11 527.31,-1470.35"/>
</g>
<!-- \\TournamentGenerator\\Helpers\\Sorter\\GameSorter -->
<g id="node6" class="node">
<title>\\TournamentGenerator\\Helpers\\Sorter\\GameSorter</title>
<polygon fill="none" stroke="black" points="508.5,-1292 424.5,-1292 424.5,-1256 508.5,-1256 508.5,-1292"/>
<text text-anchor="middle" x="466.5" y="-1271.2" font-family="Courier,monospace" font-size="11.00">GameSorter</text>
</g>
<!-- \\TournamentGenerator\\Helpers\\Sorter\\BaseSorter -->
<g id="node8" class="node">
<title>\\TournamentGenerator\\Helpers\\Sorter\\BaseSorter</title>
<polygon fill="none" stroke="black" points="298,-1265 214,-1265 214,-1229 298,-1229 298,-1265"/>
<text text-anchor="middle" x="256" y="-1244.2" font-family="Courier,monospace" font-size="11.00">BaseSorter</text>
</g>
<!-- \\TournamentGenerator\\Helpers\\Sorter\\GameSorter&#45;&gt;\\TournamentGenerator\\Helpers\\Sorter\\BaseSorter -->
<g id="edge39" class="edge">
<title>\\TournamentGenerator\\Helpers\\Sorter\\GameSorter&#45;&gt;\\TournamentGenerator\\Helpers\\Sorter\\BaseSorter</title>
<path fill="none" stroke="black" stroke-dasharray="1,5" d="M424.31,-1268.67C391.04,-1264.36 344.05,-1258.27 308.33,-1253.65"/>
<polygon fill="none" stroke="black" points="308.47,-1250.14 298.11,-1252.32 307.57,-1257.08 308.47,-1250.14"/>
</g>
<!-- \\TournamentGenerator\\Helpers\\Sorter\\TeamSorter -->
<g id="node7" class="node">
<title>\\TournamentGenerator\\Helpers\\Sorter\\TeamSorter</title>
<polygon fill="none" stroke="black" points="508.5,-1238 424.5,-1238 424.5,-1202 508.5,-1202 508.5,-1238"/>
<text text-anchor="middle" x="466.5" y="-1217.2" font-family="Courier,monospace" font-size="11.00">TeamSorter</text>
</g>
<!-- \\TournamentGenerator\\Helpers\\Sorter\\TeamSorter&#45;&gt;\\TournamentGenerator\\Helpers\\Sorter\\BaseSorter -->
<g id="edge40" class="edge">
<title>\\TournamentGenerator\\Helpers\\Sorter\\TeamSorter&#45;&gt;\\TournamentGenerator\\Helpers\\Sorter\\BaseSorter</title>
<path fill="none" stroke="black" stroke-dasharray="1,5" d="M424.31,-1225.33C391.04,-1229.64 344.05,-1235.73 308.33,-1240.35"/>
<polygon fill="none" stroke="black" points="307.57,-1236.92 298.11,-1241.68 308.47,-1243.86 307.57,-1236.92"/>
</g>
<!-- \\TournamentGenerator\\Helpers\\Filter -->
<g id="node9" class="node">
<title>\\TournamentGenerator\\Helpers\\Filter</title>
<polygon fill="none" stroke="black" points="495,-1184 438,-1184 438,-1148 495,-1148 495,-1184"/>
<text text-anchor="middle" x="466.5" y="-1163.2" font-family="Courier,monospace" font-size="11.00">Filter</text>
</g>
<!-- \\TournamentGenerator\\Helpers\\FilterComparator -->
<g id="node10" class="node">
<title>\\TournamentGenerator\\Helpers\\FilterComparator</title>
<polygon fill="none" stroke="black" points="529,-1130 404,-1130 404,-1094 529,-1094 529,-1130"/>
<text text-anchor="middle" x="466.5" y="-1109.2" font-family="Courier,monospace" font-size="11.00">FilterComparator</text>
</g>
<!-- \\TournamentGenerator\\Helpers\\Functions -->
<g id="node11" class="node">
<title>\\TournamentGenerator\\Helpers\\Functions</title>
<polygon fill="none" stroke="black" points="505,-1076 428,-1076 428,-1040 505,-1040 505,-1076"/>
<text text-anchor="middle" x="466.5" y="-1055.2" font-family="Courier,monospace" font-size="11.00">Functions</text>
</g>
<!-- \\TournamentGenerator\\Helpers\\Generator -->
<g id="node12" class="node">
<title>\\TournamentGenerator\\Helpers\\Generator</title>
<polygon fill="none" stroke="black" points="505,-1022 428,-1022 428,-986 505,-986 505,-1022"/>
<text text-anchor="middle" x="466.5" y="-1001.2" font-family="Courier,monospace" font-size="11.00">Generator</text>
</g>
<!-- \\TournamentGenerator\\Interfaces\\WithGeneratorSetters -->
<g id="node16" class="node">
<title>\\TournamentGenerator\\Interfaces\\WithGeneratorSetters</title>
<polygon fill="none" stroke="black" points="332,-843 180,-843 180,-807 332,-807 332,-843"/>
<text text-anchor="middle" x="256" y="-822.2" font-family="Courier,monospace" font-size="11.00">WithGeneratorSetters</text>
</g>
<!-- \\TournamentGenerator\\Helpers\\Generator&#45;&gt;\\TournamentGenerator\\Interfaces\\WithGeneratorSetters -->
<g id="edge13" class="edge">
<title>\\TournamentGenerator\\Helpers\\Generator&#45;&gt;\\TournamentGenerator\\Interfaces\\WithGeneratorSetters</title>
<path fill="none" stroke="black" stroke-dasharray="1,5" d="M427.82,-992.41C419.27,-988.51 410.74,-983.45 404,-977 359.75,-934.64 386.85,-892.17 340.1,-848.33"/>
<polygon fill="none" stroke="black" points="342.14,-845.47 332.29,-841.57 337.56,-850.76 342.14,-845.47"/>
</g>
<!-- \\TournamentGenerator\\Interfaces\\WithSkipSetters -->
<g id="node19" class="node">
<title>\\TournamentGenerator\\Interfaces\\WithSkipSetters</title>
<polygon fill="none" stroke="black" points="315,-789 197,-789 197,-753 315,-753 315,-789"/>
<text text-anchor="middle" x="256" y="-768.2" font-family="Courier,monospace" font-size="11.00">WithSkipSetters</text>
</g>
<!-- \\TournamentGenerator\\Helpers\\Generator&#45;&gt;\\TournamentGenerator\\Interfaces\\WithSkipSetters -->
<g id="edge14" class="edge">
<title>\\TournamentGenerator\\Helpers\\Generator&#45;&gt;\\TournamentGenerator\\Interfaces\\WithSkipSetters</title>
<path fill="none" stroke="black" stroke-dasharray="1,5" d="M427.92,-993.23C419.17,-989.28 410.52,-983.99 404,-977 346.39,-915.2 400.6,-856.87 340,-798 335.44,-793.57 330.13,-789.86 324.46,-786.76"/>
<polygon fill="none" stroke="black" points="325.83,-783.53 315.29,-782.38 322.81,-789.85 325.83,-783.53"/>
</g>
<!-- \\TournamentGenerator\\Helpers\\Simulator -->
<g id="node13" class="node">
<title>\\TournamentGenerator\\Helpers\\Simulator</title>
<polygon fill="none" stroke="black" points="505,-968 428,-968 428,-932 505,-932 505,-968"/>
<text text-anchor="middle" x="466.5" y="-947.2" font-family="Courier,monospace" font-size="11.00">Simulator</text>
</g>
<!-- \\TournamentGenerator\\Interfaces\\WithCategories -->
<g id="node14" class="node">
<title>\\TournamentGenerator\\Interfaces\\WithCategories</title>
<polygon fill="none" stroke="black" points="311.5,-735 200.5,-735 200.5,-699 311.5,-699 311.5,-735"/>
<text text-anchor="middle" x="256" y="-714.2" font-family="Courier,monospace" font-size="11.00">WithCategories</text>
</g>
<!-- \\TournamentGenerator\\Interfaces\\WithGames -->
<g id="node15" class="node">
<title>\\TournamentGenerator\\Interfaces\\WithGames</title>
<polygon fill="none" stroke="black" points="294.5,-681 217.5,-681 217.5,-645 294.5,-645 294.5,-681"/>
<text text-anchor="middle" x="256" y="-660.2" font-family="Courier,monospace" font-size="11.00">WithGames</text>
</g>
<!-- \\TournamentGenerator\\Interfaces\\WithGroups -->
<g id="node17" class="node">
<title>\\TournamentGenerator\\Interfaces\\WithGroups</title>
<polygon fill="none" stroke="black" points="298,-519 214,-519 214,-483 298,-483 298,-519"/>
<text text-anchor="middle" x="256" y="-498.2" font-family="Courier,monospace" font-size="11.00">WithGroups</text>
</g>
<!-- \\TournamentGenerator\\Interfaces\\WithRounds -->
<g id="node18" class="node">
<title>\\TournamentGenerator\\Interfaces\\WithRounds</title>
<polygon fill="none" stroke="black" points="298,-573 214,-573 214,-537 298,-537 298,-573"/>
<text text-anchor="middle" x="256" y="-552.2" font-family="Courier,monospace" font-size="11.00">WithRounds</text>
</g>
<!-- \\TournamentGenerator\\Interfaces\\WithTeams -->
<g id="node20" class="node">
<title>\\TournamentGenerator\\Interfaces\\WithTeams</title>
<polygon fill="none" stroke="black" points="294.5,-627 217.5,-627 217.5,-591 294.5,-591 294.5,-627"/>
<text text-anchor="middle" x="256" y="-606.2" font-family="Courier,monospace" font-size="11.00">WithTeams</text>
</g>
<!-- \\TournamentGenerator\\Preset\\DoubleElimination -->
<g id="node21" class="node">
<title>\\TournamentGenerator\\Preset\\DoubleElimination</title>
<polygon fill="none" stroke="black" points="735.5,-788 604.5,-788 604.5,-752 735.5,-752 735.5,-788"/>
<text text-anchor="middle" x="670" y="-767.2" font-family="Courier,monospace" font-size="11.00">DoubleElimination</text>
</g>
<!-- \\TournamentGenerator\\Preset\\Preset -->
<g id="node24" class="node">
<title>\\TournamentGenerator\\Preset\\Preset</title>
<polygon fill="none" stroke="black" points="495,-788 438,-788 438,-752 495,-752 495,-788"/>
<text text-anchor="middle" x="466.5" y="-767.2" font-family="Courier,monospace" font-size="11.00">Preset</text>
</g>
<!-- \\TournamentGenerator\\Preset\\DoubleElimination&#45;&gt;\\TournamentGenerator\\Preset\\Preset -->
<g id="edge16" class="edge">
<title>\\TournamentGenerator\\Preset\\DoubleElimination&#45;&gt;\\TournamentGenerator\\Preset\\Preset</title>
<path fill="none" stroke="black" stroke-dasharray="1,5" d="M604.41,-770C571.65,-770 533,-770 505.13,-770"/>
<polygon fill="none" stroke="black" points="505.02,-766.5 495.02,-770 505.02,-773.5 505.02,-766.5"/>
</g>
<!-- \\TournamentGenerator\\Tournament -->
<g id="node43" class="node">
<title>\\TournamentGenerator\\Tournament</title>
<polygon fill="none" stroke="black" points="508.5,-628 424.5,-628 424.5,-592 508.5,-592 508.5,-628"/>
<text text-anchor="middle" x="466.5" y="-607.2" font-family="Courier,monospace" font-size="11.00">Tournament</text>
</g>
<!-- \\TournamentGenerator\\Preset\\DoubleElimination&#45;&gt;\\TournamentGenerator\\Tournament -->
<g id="edge15" class="edge">
<title>\\TournamentGenerator\\Preset\\DoubleElimination&#45;&gt;\\TournamentGenerator\\Tournament</title>
<path fill="none" stroke="black" d="M614.08,-751.98C609.42,-749.35 604.97,-746.37 601,-743 559.01,-707.43 579.12,-672.41 537,-637 531.35,-632.25 524.76,-628.27 517.94,-624.96"/>
<polygon fill="none" stroke="black" points="519.12,-621.66 508.55,-620.85 516.31,-628.07 519.12,-621.66"/>
</g>
<!-- \\TournamentGenerator\\Preset\\R2G -->
<g id="node22" class="node">
<title>\\TournamentGenerator\\Preset\\R2G</title>
<polygon fill="none" stroke="black" points="697,-734 643,-734 643,-698 697,-698 697,-734"/>
<text text-anchor="middle" x="670" y="-713.2" font-family="Courier,monospace" font-size="11.00">R2G</text>
</g>
<!-- \\TournamentGenerator\\Preset\\R2G&#45;&gt;\\TournamentGenerator\\Preset\\Preset -->
<g id="edge18" class="edge">
<title>\\TournamentGenerator\\Preset\\R2G&#45;&gt;\\TournamentGenerator\\Preset\\Preset</title>
<path fill="none" stroke="black" stroke-dasharray="1,5" d="M642.66,-723.06C607.45,-732.49 544.85,-749.27 504.81,-760"/>
<polygon fill="none" stroke="black" points="503.89,-756.62 495.14,-762.59 505.71,-763.38 503.89,-756.62"/>
</g>
<!-- \\TournamentGenerator\\Preset\\R2G&#45;&gt;\\TournamentGenerator\\Tournament -->
<g id="edge17" class="edge">
<title>\\TournamentGenerator\\Preset\\R2G&#45;&gt;\\TournamentGenerator\\Tournament</title>
<path fill="none" stroke="black" d="M642.77,-706.14C629.84,-700.85 614.21,-693.82 601,-686 570.17,-667.75 568.23,-654.55 537,-637 531.09,-633.68 524.68,-630.58 518.23,-627.76"/>
<polygon fill="none" stroke="black" points="519.39,-624.45 508.81,-623.83 516.69,-630.91 519.39,-624.45"/>
</g>
<!-- \\TournamentGenerator\\Preset\\SingleElimination -->
<g id="node23" class="node">
<title>\\TournamentGenerator\\Preset\\SingleElimination</title>
<polygon fill="none" stroke="black" points="735.5,-842 604.5,-842 604.5,-806 735.5,-806 735.5,-842"/>
<text text-anchor="middle" x="670" y="-821.2" font-family="Courier,monospace" font-size="11.00">SingleElimination</text>
</g>
<!-- \\TournamentGenerator\\Preset\\SingleElimination&#45;&gt;\\TournamentGenerator\\Preset\\Preset -->
<g id="edge20" class="edge">
<title>\\TournamentGenerator\\Preset\\SingleElimination&#45;&gt;\\TournamentGenerator\\Preset\\Preset</title>
<path fill="none" stroke="black" stroke-dasharray="1,5" d="M604.41,-806.69C571.5,-797.87 532.66,-787.46 504.77,-779.99"/>
<polygon fill="none" stroke="black" points="505.58,-776.58 495.02,-777.37 503.77,-783.34 505.58,-776.58"/>
</g>
<!-- \\TournamentGenerator\\Preset\\SingleElimination&#45;&gt;\\TournamentGenerator\\Tournament -->
<g id="edge19" class="edge">
<title>\\TournamentGenerator\\Preset\\SingleElimination&#45;&gt;\\TournamentGenerator\\Tournament</title>
<path fill="none" stroke="black" d="M612.16,-805.82C608.11,-803.24 604.33,-800.32 601,-797 546.77,-742.91 591.43,-690.89 537,-637 531.62,-631.68 525.08,-627.38 518.18,-623.91"/>
<polygon fill="none" stroke="black" points="519.2,-620.53 508.64,-619.68 516.36,-626.93 519.2,-620.53"/>
</g>
<!-- \\TournamentGenerator\\Traits\\WithCategories -->
<g id="node25" class="node">
<title>\\TournamentGenerator\\Traits\\WithCategories</title>
<polygon fill="none" stroke="black" points="725.5,-654 614.5,-654 614.5,-618 725.5,-618 725.5,-654"/>
<text text-anchor="middle" x="670" y="-633.2" font-family="Courier,monospace" font-size="11.00">WithCategories</text>
</g>
<!-- \\TournamentGenerator\\Traits\\WithGames -->
<g id="node26" class="node">
<title>\\TournamentGenerator\\Traits\\WithGames</title>
<polygon fill="none" stroke="black" points="708.5,-600 631.5,-600 631.5,-564 708.5,-564 708.5,-600"/>
<text text-anchor="middle" x="670" y="-579.2" font-family="Courier,monospace" font-size="11.00">WithGames</text>
</g>
<!-- \\TournamentGenerator\\Traits\\WithGroups -->
<g id="node27" class="node">
<title>\\TournamentGenerator\\Traits\\WithGroups</title>
<polygon fill="none" stroke="black" points="712,-546 628,-546 628,-510 712,-510 712,-546"/>
<text text-anchor="middle" x="670" y="-525.2" font-family="Courier,monospace" font-size="11.00">WithGroups</text>
</g>
<!-- \\TournamentGenerator\\Traits\\WithRounds -->
<g id="node28" class="node">
<title>\\TournamentGenerator\\Traits\\WithRounds</title>
<polygon fill="none" stroke="black" points="712,-492 628,-492 628,-456 712,-456 712,-492"/>
<text text-anchor="middle" x="670" y="-471.2" font-family="Courier,monospace" font-size="11.00">WithRounds</text>
</g>
<!-- \\TournamentGenerator\\Traits\\WithSkipSetters -->
<g id="node29" class="node">
<title>\\TournamentGenerator\\Traits\\WithSkipSetters</title>
<polygon fill="none" stroke="black" points="729,-438 611,-438 611,-402 729,-402 729,-438"/>
<text text-anchor="middle" x="670" y="-417.2" font-family="Courier,monospace" font-size="11.00">WithSkipSetters</text>
</g>
<!-- \\TournamentGenerator\\Traits\\WithTeams -->
<g id="node30" class="node">
<title>\\TournamentGenerator\\Traits\\WithTeams</title>
<polygon fill="none" stroke="black" points="708.5,-384 631.5,-384 631.5,-348 708.5,-348 708.5,-384"/>
<text text-anchor="middle" x="670" y="-363.2" font-family="Courier,monospace" font-size="11.00">WithTeams</text>
</g>
<!-- \\TournamentGenerator\\Traits\\HasPositions -->
<g id="node31" class="node">
<title>\\TournamentGenerator\\Traits\\HasPositions</title>
<polygon fill="none" stroke="black" points="719,-330 621,-330 621,-294 719,-294 719,-330"/>
<text text-anchor="middle" x="670" y="-309.2" font-family="Courier,monospace" font-size="11.00">HasPositions</text>
</g>
<!-- \\TournamentGenerator\\Traits\\HasScore -->
<g id="node32" class="node">
<title>\\TournamentGenerator\\Traits\\HasScore</title>
<polygon fill="none" stroke="black" points="705.5,-276 634.5,-276 634.5,-240 705.5,-240 705.5,-276"/>
<text text-anchor="middle" x="670" y="-255.2" font-family="Courier,monospace" font-size="11.00">HasScore</text>
</g>
<!-- \\TournamentGenerator\\Base -->
<g id="node33" class="node">
<title>\\TournamentGenerator\\Base</title>
<polygon fill="none" stroke="black" points="108,-690 24,-690 24,-654 108,-654 108,-690"/>
<text text-anchor="start" x="32" y="-675.2" font-family="Courier,monospace" font-size="11.00">«abstract»</text>
<text text-anchor="start" x="52" y="-663.2" font-family="Courier,monospace" font-size="11.00">Base</text>
</g>
<!-- \\TournamentGenerator\\BlankTeam -->
<g id="node34" class="node">
<title>\\TournamentGenerator\\BlankTeam</title>
<polygon fill="none" stroke="black" points="505,-914 428,-914 428,-878 505,-878 505,-914"/>
<text text-anchor="middle" x="466.5" y="-893.2" font-family="Courier,monospace" font-size="11.00">BlankTeam</text>
</g>
<!-- \\TournamentGenerator\\Team -->
<g id="node41" class="node">
<title>\\TournamentGenerator\\Team</title>
<polygon fill="none" stroke="black" points="283,-915 229,-915 229,-879 283,-879 283,-915"/>
<text text-anchor="middle" x="256" y="-894.2" font-family="Courier,monospace" font-size="11.00">Team</text>
</g>
<!-- \\TournamentGenerator\\BlankTeam&#45;&gt;\\TournamentGenerator\\Team -->
<g id="edge1" class="edge">
<title>\\TournamentGenerator\\BlankTeam&#45;&gt;\\TournamentGenerator\\Team</title>
<path fill="none" stroke="black" d="M427.74,-896.18C389.56,-896.36 330.94,-896.65 293.29,-896.83"/>
<polygon fill="none" stroke="black" points="293.24,-893.33 283.26,-896.87 293.27,-900.33 293.24,-893.33"/>
</g>
<!-- \\TournamentGenerator\\Category -->
<g id="node35" class="node">
<title>\\TournamentGenerator\\Category</title>
<polygon fill="none" stroke="black" points="502,-520 431,-520 431,-484 502,-484 502,-520"/>
<text text-anchor="middle" x="466.5" y="-499.2" font-family="Courier,monospace" font-size="11.00">Category</text>
</g>
<!-- \\TournamentGenerator\\Category&#45;&gt;\\TournamentGenerator\\Interfaces\\WithGames -->
<g id="edge7" class="edge">
<title>\\TournamentGenerator\\Category&#45;&gt;\\TournamentGenerator\\Interfaces\\WithGames</title>
<path fill="none" stroke="black" stroke-dasharray="1,5" d="M430.75,-512.85C421.37,-516.9 411.7,-522.21 404,-529 362.44,-565.65 383.33,-601.45 340,-636 329.81,-644.13 317.1,-649.84 304.71,-653.84"/>
<polygon fill="none" stroke="black" points="303.52,-650.54 294.9,-656.7 305.48,-657.26 303.52,-650.54"/>
</g>
<!-- \\TournamentGenerator\\Category&#45;&gt;\\TournamentGenerator\\Interfaces\\WithGroups -->
<g id="edge6" class="edge">
<title>\\TournamentGenerator\\Category&#45;&gt;\\TournamentGenerator\\Interfaces\\WithGroups</title>
<path fill="none" stroke="black" stroke-dasharray="1,5" d="M430.6,-501.83C397.22,-501.67 346.48,-501.43 308.47,-501.25"/>
<polygon fill="none" stroke="black" points="308.12,-497.75 298.11,-501.2 308.09,-504.75 308.12,-497.75"/>
</g>
<!-- \\TournamentGenerator\\Category&#45;&gt;\\TournamentGenerator\\Interfaces\\WithRounds -->
<g id="edge4" class="edge">
<title>\\TournamentGenerator\\Category&#45;&gt;\\TournamentGenerator\\Interfaces\\WithRounds</title>
<path fill="none" stroke="black" stroke-dasharray="1,5" d="M430.6,-510.87C397.08,-519.39 346.05,-532.36 307.98,-542.04"/>
<polygon fill="none" stroke="black" points="306.94,-538.7 298.11,-544.55 308.66,-545.48 306.94,-538.7"/>
</g>
<!-- \\TournamentGenerator\\Category&#45;&gt;\\TournamentGenerator\\Interfaces\\WithSkipSetters -->
<g id="edge3" class="edge">
<title>\\TournamentGenerator\\Category&#45;&gt;\\TournamentGenerator\\Interfaces\\WithSkipSetters</title>
<path fill="none" stroke="black" stroke-dasharray="1,5" d="M430.86,-511.14C421.04,-515.21 411.1,-520.96 404,-529 338.02,-603.74 409.6,-672.62 340,-744 335.49,-748.63 330.17,-752.46 324.45,-755.64"/>
<polygon fill="none" stroke="black" points="322.67,-752.62 315.18,-760.11 325.71,-758.92 322.67,-752.62"/>
</g>
<!-- \\TournamentGenerator\\Category&#45;&gt;\\TournamentGenerator\\Interfaces\\WithTeams -->
<g id="edge5" class="edge">
<title>\\TournamentGenerator\\Category&#45;&gt;\\TournamentGenerator\\Interfaces\\WithTeams</title>
<path fill="none" stroke="black" stroke-dasharray="1,5" d="M430.81,-515.22C421.82,-519.18 412.34,-523.86 404,-529 372.57,-548.39 372.36,-564.19 340,-582 329.01,-588.05 316.44,-593.01 304.47,-596.95"/>
<polygon fill="none" stroke="black" points="303.11,-593.71 294.6,-600.03 305.19,-600.4 303.11,-593.71"/>
</g>
<!-- \\TournamentGenerator\\HierarchyBase -->
<g id="node44" class="node">
<title>\\TournamentGenerator\\HierarchyBase</title>
<polygon fill="none" stroke="black" points="308,-465 204,-465 204,-429 308,-429 308,-465"/>
<text text-anchor="start" x="222" y="-450.2" font-family="Courier,monospace" font-size="11.00">«abstract»</text>
<text text-anchor="start" x="212" y="-438.2" font-family="Courier,monospace" font-size="11.00">HierarchyBase</text>
</g>
<!-- \\TournamentGenerator\\Category&#45;&gt;\\TournamentGenerator\\HierarchyBase -->
<g id="edge2" class="edge">
<title>\\TournamentGenerator\\Category&#45;&gt;\\TournamentGenerator\\HierarchyBase</title>
<path fill="none" stroke="black" d="M430.6,-492.79C399.98,-484.72 354.74,-472.78 318.12,-463.12"/>
<polygon fill="none" stroke="black" points="318.61,-459.63 308.04,-460.46 316.82,-466.4 318.61,-459.63"/>
</g>
<!-- \\TournamentGenerator\\Constants -->
<g id="node36" class="node">
<title>\\TournamentGenerator\\Constants</title>
<polygon fill="none" stroke="black" points="708.5,-222 631.5,-222 631.5,-186 708.5,-186 708.5,-222"/>
<text text-anchor="middle" x="670" y="-201.2" font-family="Courier,monospace" font-size="11.00">Constants</text>
</g>
<!-- \\TournamentGenerator\\Game -->
<g id="node37" class="node">
<title>\\TournamentGenerator\\Game</title>
<polygon fill="none" stroke="black" points="697,-168 643,-168 643,-132 697,-132 697,-168"/>
<text text-anchor="middle" x="670" y="-147.2" font-family="Courier,monospace" font-size="11.00">Game</text>
</g>
<!-- \\TournamentGenerator\\Group -->
<g id="node38" class="node">
<title>\\TournamentGenerator\\Group</title>
<polygon fill="none" stroke="black" points="493.5,-682 439.5,-682 439.5,-646 493.5,-646 493.5,-682"/>
<text text-anchor="middle" x="466.5" y="-661.2" font-family="Courier,monospace" font-size="11.00">Group</text>
</g>
<!-- \\TournamentGenerator\\Group&#45;&gt;\\TournamentGenerator\\Interfaces\\WithGames -->
<g id="edge12" class="edge">
<title>\\TournamentGenerator\\Group&#45;&gt;\\TournamentGenerator\\Interfaces\\WithGames</title>
<path fill="none" stroke="black" stroke-dasharray="1,5" d="M439.09,-663.87C405.45,-663.71 346.69,-663.43 305.03,-663.23"/>
<polygon fill="none" stroke="black" points="304.84,-659.73 294.83,-663.18 304.81,-666.73 304.84,-659.73"/>
</g>
<!-- \\TournamentGenerator\\Group&#45;&gt;\\TournamentGenerator\\Interfaces\\WithGeneratorSetters -->
<g id="edge9" class="edge">
<title>\\TournamentGenerator\\Group&#45;&gt;\\TournamentGenerator\\Interfaces\\WithGeneratorSetters</title>
<path fill="none" stroke="black" stroke-dasharray="1,5" d="M439.48,-668.96C427.65,-672.24 414.08,-677.55 404,-686 360.06,-722.83 384.47,-761.81 340,-798 338.46,-799.26 336.85,-800.45 335.2,-801.6"/>
<polygon fill="none" stroke="black" points="333.29,-798.66 326.57,-806.86 336.93,-804.64 333.29,-798.66"/>
</g>
<!-- \\TournamentGenerator\\Group&#45;&gt;\\TournamentGenerator\\Interfaces\\WithSkipSetters -->
<g id="edge10" class="edge">
<title>\\TournamentGenerator\\Group&#45;&gt;\\TournamentGenerator\\Interfaces\\WithSkipSetters</title>
<path fill="none" stroke="black" stroke-dasharray="1,5" d="M439.36,-670.85C428.03,-674.44 414.89,-679.47 404,-686 371.07,-705.73 373.21,-724.75 340,-744 335.17,-746.8 330,-749.36 324.7,-751.68"/>
<polygon fill="none" stroke="black" points="323.01,-748.59 315.07,-755.61 325.65,-755.07 323.01,-748.59"/>
</g>
<!-- \\TournamentGenerator\\Group&#45;&gt;\\TournamentGenerator\\Interfaces\\WithTeams -->
<g id="edge11" class="edge">
<title>\\TournamentGenerator\\Group&#45;&gt;\\TournamentGenerator\\Interfaces\\WithTeams</title>
<path fill="none" stroke="black" stroke-dasharray="1,5" d="M439.09,-657.03C405.31,-648.12 346.19,-632.53 304.5,-621.53"/>
<polygon fill="none" stroke="black" points="305.39,-618.14 294.83,-618.98 303.6,-624.91 305.39,-618.14"/>
</g>
<!-- \\TournamentGenerator\\Group&#45;&gt;\\TournamentGenerator\\HierarchyBase -->
<g id="edge8" class="edge">
<title>\\TournamentGenerator\\Group&#45;&gt;\\TournamentGenerator\\HierarchyBase</title>
<path fill="none" stroke="black" d="M439.44,-657.59C427.31,-653.46 413.5,-646.95 404,-637 349.38,-579.83 398.28,-524.44 340,-471 333.64,-465.17 325.95,-460.75 317.85,-457.4"/>
<polygon fill="none" stroke="black" points="318.8,-454.02 308.21,-453.93 316.44,-460.61 318.8,-454.02"/>
</g>
<!-- \\TournamentGenerator\\Progression -->
<g id="node39" class="node">
<title>\\TournamentGenerator\\Progression</title>
<polygon fill="none" stroke="black" points="715.5,-114 624.5,-114 624.5,-78 715.5,-78 715.5,-114"/>
<text text-anchor="middle" x="670" y="-93.2" font-family="Courier,monospace" font-size="11.00">Progression</text>
</g>
<!-- \\TournamentGenerator\\Round -->
<g id="node40" class="node">
<title>\\TournamentGenerator\\Round</title>
<polygon fill="none" stroke="black" points="493.5,-574 439.5,-574 439.5,-538 493.5,-538 493.5,-574"/>
<text text-anchor="middle" x="466.5" y="-553.2" font-family="Courier,monospace" font-size="11.00">Round</text>
</g>
<!-- \\TournamentGenerator\\Round&#45;&gt;\\TournamentGenerator\\Interfaces\\WithGames -->
<g id="edge25" class="edge">
<title>\\TournamentGenerator\\Round&#45;&gt;\\TournamentGenerator\\Interfaces\\WithGames</title>
<path fill="none" stroke="black" stroke-dasharray="1,5" d="M439.26,-565.63C428.04,-570.23 415.02,-576.21 404,-583 372.57,-602.39 372.36,-618.19 340,-636 329.01,-642.05 316.44,-647.01 304.47,-650.95"/>
<polygon fill="none" stroke="black" points="303.11,-647.71 294.6,-654.03 305.19,-654.4 303.11,-647.71"/>
</g>
<!-- \\TournamentGenerator\\Round&#45;&gt;\\TournamentGenerator\\Interfaces\\WithGroups -->
<g id="edge24" class="edge">
<title>\\TournamentGenerator\\Round&#45;&gt;\\TournamentGenerator\\Interfaces\\WithGroups</title>
<path fill="none" stroke="black" stroke-dasharray="1,5" d="M439.09,-549.03C406.29,-540.38 349.61,-525.43 308.18,-514.5"/>
<polygon fill="none" stroke="black" points="308.82,-511.05 298.26,-511.88 307.04,-517.82 308.82,-511.05"/>
</g>
<!-- \\TournamentGenerator\\Round&#45;&gt;\\TournamentGenerator\\Interfaces\\WithSkipSetters -->
<g id="edge22" class="edge">
<title>\\TournamentGenerator\\Round&#45;&gt;\\TournamentGenerator\\Interfaces\\WithSkipSetters</title>
<path fill="none" stroke="black" stroke-dasharray="1,5" d="M439.48,-562.45C427.37,-566.59 413.56,-573.1 404,-583 350.52,-638.4 396.16,-691.32 340,-744 335.36,-748.35 330.01,-752.01 324.3,-755.07"/>
<polygon fill="none" stroke="black" points="322.64,-751.98 315.1,-759.42 325.63,-758.31 322.64,-751.98"/>
</g>
<!-- \\TournamentGenerator\\Round&#45;&gt;\\TournamentGenerator\\Interfaces\\WithTeams -->
<g id="edge23" class="edge">
<title>\\TournamentGenerator\\Round&#45;&gt;\\TournamentGenerator\\Interfaces\\WithTeams</title>
<path fill="none" stroke="black" stroke-dasharray="1,5" d="M439.09,-562.71C405.38,-571.28 346.44,-586.26 304.76,-596.86"/>
<polygon fill="none" stroke="black" points="303.66,-593.53 294.83,-599.38 305.38,-600.31 303.66,-593.53"/>
</g>
<!-- \\TournamentGenerator\\Round&#45;&gt;\\TournamentGenerator\\HierarchyBase -->
<g id="edge21" class="edge">
<title>\\TournamentGenerator\\Round&#45;&gt;\\TournamentGenerator\\HierarchyBase</title>
<path fill="none" stroke="black" d="M439.42,-546.72C428.1,-542.16 414.96,-536.1 404,-529 371.79,-508.12 373.52,-489.7 340,-471 333.02,-467.1 325.34,-463.79 317.56,-460.98"/>
<polygon fill="none" stroke="black" points="318.66,-457.66 308.07,-457.81 316.44,-464.3 318.66,-457.66"/>
</g>
<!-- \\TournamentGenerator\\Team&#45;&gt;\\TournamentGenerator\\Base -->
<g id="edge26" class="edge">
<title>\\TournamentGenerator\\Team&#45;&gt;\\TournamentGenerator\\Base</title>
<path fill="none" stroke="black" d="M228.96,-895.54C211.24,-893.34 188.16,-887.97 172,-875 114.85,-829.13 85.51,-743.79 73.6,-699.8"/>
<polygon fill="none" stroke="black" points="76.97,-698.86 71.06,-690.06 70.19,-700.62 76.97,-698.86"/>
</g>
<!-- \\TournamentGenerator\\TeamFilter -->
<g id="node42" class="node">
<title>\\TournamentGenerator\\TeamFilter</title>
<polygon fill="none" stroke="black" points="712,-60 628,-60 628,-24 712,-24 712,-60"/>
<text text-anchor="middle" x="670" y="-39.2" font-family="Courier,monospace" font-size="11.00">TeamFilter</text>
</g>
<!-- \\TournamentGenerator\\Tournament&#45;&gt;\\TournamentGenerator\\Interfaces\\WithCategories -->
<g id="edge31" class="edge">
<title>\\TournamentGenerator\\Tournament&#45;&gt;\\TournamentGenerator\\Interfaces\\WithCategories</title>
<path fill="none" stroke="black" stroke-dasharray="1,5" d="M424.33,-626.17C417.37,-629.44 410.35,-633.08 404,-637 372.57,-656.39 372.36,-672.19 340,-690 334.11,-693.24 327.78,-696.17 321.32,-698.79"/>
<polygon fill="none" stroke="black" points="319.91,-695.59 311.82,-702.43 322.41,-702.12 319.91,-695.59"/>
</g>
<!-- \\TournamentGenerator\\Tournament&#45;&gt;\\TournamentGenerator\\Interfaces\\WithGames -->
<g id="edge33" class="edge">
<title>\\TournamentGenerator\\Tournament&#45;&gt;\\TournamentGenerator\\Interfaces\\WithGames</title>
<path fill="none" stroke="black" stroke-dasharray="1,5" d="M424.31,-620.47C389.81,-629.24 340.56,-641.76 304.42,-650.94"/>
<polygon fill="none" stroke="black" points="303.43,-647.59 294.6,-653.44 305.16,-654.37 303.43,-647.59"/>
</g>
<!-- \\TournamentGenerator\\Tournament&#45;&gt;\\TournamentGenerator\\Interfaces\\WithGroups -->
<g id="edge32" class="edge">
<title>\\TournamentGenerator\\Tournament&#45;&gt;\\TournamentGenerator\\Interfaces\\WithGroups</title>
<path fill="none" stroke="black" stroke-dasharray="1,5" d="M424.27,-593.93C417.32,-590.65 410.32,-586.98 404,-583 372.26,-563.02 372.69,-546.38 340,-528 329.99,-522.37 318.63,-517.71 307.6,-513.93"/>
<polygon fill="none" stroke="black" points="308.62,-510.59 298.03,-510.84 306.47,-517.25 308.62,-510.59"/>
</g>
<!-- \\TournamentGenerator\\Tournament&#45;&gt;\\TournamentGenerator\\Interfaces\\WithRounds -->
<g id="edge30" class="edge">
<title>\\TournamentGenerator\\Tournament&#45;&gt;\\TournamentGenerator\\Interfaces\\WithRounds</title>
<path fill="none" stroke="black" stroke-dasharray="1,5" d="M424.31,-599.13C390.9,-590.32 343.64,-577.86 307.87,-568.42"/>
<polygon fill="none" stroke="black" points="308.67,-565.01 298.11,-565.84 306.88,-571.78 308.67,-565.01"/>
</g>
<!-- \\TournamentGenerator\\Tournament&#45;&gt;\\TournamentGenerator\\Interfaces\\WithSkipSetters -->
<g id="edge28" class="edge">
<title>\\TournamentGenerator\\Tournament&#45;&gt;\\TournamentGenerator\\Interfaces\\WithSkipSetters</title>
<path fill="none" stroke="black" stroke-dasharray="1,5" d="M424.33,-623.81C417.07,-627.39 409.95,-631.76 404,-637 362.44,-673.65 383.33,-709.45 340,-744 335.29,-747.75 330.05,-750.99 324.55,-753.78"/>
<polygon fill="none" stroke="black" points="322.76,-750.75 315.1,-758.07 325.65,-757.13 322.76,-750.75"/>
</g>
<!-- \\TournamentGenerator\\Tournament&#45;&gt;\\TournamentGenerator\\Interfaces\\WithTeams -->
<g id="edge29" class="edge">
<title>\\TournamentGenerator\\Tournament&#45;&gt;\\TournamentGenerator\\Interfaces\\WithTeams</title>
<path fill="none" stroke="black" stroke-dasharray="1,5" d="M424.31,-609.8C389.96,-609.64 340.98,-609.4 304.89,-609.23"/>
<polygon fill="none" stroke="black" points="304.62,-605.73 294.6,-609.18 304.59,-612.73 304.62,-605.73"/>
</g>
<!-- \\TournamentGenerator\\Tournament&#45;&gt;\\TournamentGenerator\\HierarchyBase -->
<g id="edge27" class="edge">
<title>\\TournamentGenerator\\Tournament&#45;&gt;\\TournamentGenerator\\HierarchyBase</title>
<path fill="none" stroke="black" d="M424.25,-596.28C417,-592.69 409.89,-588.3 404,-583 361.38,-544.65 385.06,-506.45 340,-471 333.39,-465.8 325.7,-461.73 317.71,-458.54"/>
<polygon fill="none" stroke="black" points="318.84,-455.22 308.24,-455.18 316.5,-461.82 318.84,-455.22"/>
</g>
<!-- \\TournamentGenerator\\HierarchyBase&#45;&gt;\\TournamentGenerator\\Base -->
<g id="edge41" class="edge">
<title>\\TournamentGenerator\\HierarchyBase&#45;&gt;\\TournamentGenerator\\Base</title>
<path fill="none" stroke="black" d="M203.99,-454.8C192.59,-458.34 181.17,-463.5 172,-471 115.97,-516.82 86.26,-600.49 73.97,-644.01"/>
<polygon fill="none" stroke="black" points="70.52,-643.35 71.28,-653.92 77.28,-645.19 70.52,-643.35"/>
</g>
</g>
</svg>
